<?xml version="1.0" encoding="UTF-8"?>
<svg version="1.1" xmlns="http://www.w3.org/2000/svg" width="281" height="281">
<path d="M0 0 C1.32 0 2.64 0 4 0 C4.0825 0.78375 4.165 1.5675 4.25 2.375 C4.72214303 5.13680512 4.72214303 5.13680512 7 6.25 C7.99 6.62125 7.99 6.62125 9 7 C9.495 7.495 9.495 7.495 10 8 C11.80207483 8.02917573 13.60538323 7.98619982 15.40625 7.9140625 C16.53571045 7.87079834 17.6651709 7.82753418 18.82885742 7.78295898 C20.04033447 7.73083252 21.25181152 7.67870605 22.5 7.625 C24.32978394 7.55164429 24.32978394 7.55164429 26.1965332 7.47680664 C35.4714282 7.09410318 44.73763575 6.61400722 54 6 C54.33 5.01 54.66 4.02 55 3 C61.0546875 2.8046875 61.0546875 2.8046875 63 3 C65 5 65 5 65.25 8.4375 C65 12 65 12 63 15 C63.41728338 17.34711763 63.41728338 17.34711763 64.44921875 19.859375 C64.97999023 21.28636719 64.97999023 21.28636719 65.52148438 22.7421875 C65.90626953 23.73476562 66.29105469 24.72734375 66.6875 25.75 C67.23567383 27.21566406 67.23567383 27.21566406 67.79492188 28.7109375 C69.34281785 32.82019979 70.93053943 36.90114718 72.6875 40.92578125 C73.75878692 43.4350158 74.58468959 45.81837273 75.3125 48.4375 C76.68601395 52.73432171 78.8359566 55.81660425 81.6953125 59.2734375 C84.90224556 63.51734292 84.35163772 68.87775092 84.62109375 73.96875 C84.79211556 77.17265473 84.79211556 77.17265473 87 80 C87.43738696 81.71444889 87.80848688 83.44667784 88.125 85.1875 C88.29257813 86.08855469 88.46015625 86.98960937 88.6328125 87.91796875 C88.75398437 88.60503906 88.87515625 89.29210937 89 90 C89.99 90 90.98 90 92 90 C91.6875 91.9375 91.6875 91.9375 91 94 C90.01 94.33 89.02 94.66 88 95 C88 95.66 88 96.32 88 97 C86.68 97 85.36 97 84 97 C83.67 97.99 83.34 98.98 83 100 C75.19088588 101.06718913 67.49956712 101.14920461 59.625 101.125 C58.37460938 101.12886719 57.12421875 101.13273437 55.8359375 101.13671875 C33.98184538 101.11385882 33.98184538 101.11385882 28.3125 95.9375 C27.48363281 95.20402344 26.65476562 94.47054687 25.80078125 93.71484375 C25.20652344 93.14894531 24.61226563 92.58304687 24 92 C24.33 91.34 24.66 90.68 25 90 C25.99 90 26.98 90 28 90 C28.12375 89.27425781 28.2475 88.54851562 28.375 87.80078125 C28.99095791 85.04051987 29.85754455 82.76992534 31 80.1875 C33.69756988 73.85646865 36.14447957 67.44259508 38.5625 61 C38.93826172 60.00379639 39.31402344 59.00759277 39.70117188 57.98120117 C41.60477207 52.89257114 43.41119894 47.79251466 45.08984375 42.625 C46.43479495 38.53605632 47.98148018 34.81036095 50 31 C51.19916912 28.31958606 52.29592683 25.60561239 53.375 22.875 C53.67277344 22.17246094 53.97054687 21.46992187 54.27734375 20.74609375 C55.89403572 16.66333256 55.89403572 16.66333256 55.03125 12.5 C52.20702095 10.41441547 50.57502775 10.72063266 47.125 11.125 C46.09632813 11.23070313 45.06765625 11.33640625 44.0078125 11.4453125 C41.05037239 11.87233842 41.05037239 11.87233842 38.671875 13.01953125 C34.85541913 14.42001433 31.16180893 14.42661399 27.125 14.5625 C19.01845705 14.86062017 19.01845705 14.86062017 11 16 C9.60761953 17.86747263 9.60761953 17.86747263 9 20 C8.34 20.66 7.68 21.32 7 22 C7.99 22.66 8.98 23.32 10 24 C11.23499448 29.86622376 10.88713698 35.10395114 10 41 C8.515 41.495 8.515 41.495 7 42 C7 45.63 7 49.26 7 53 C8.485 53.495 8.485 53.495 10 54 C11.28282363 56.56564725 11.20391953 58.51033069 11.25 61.375 C11.27578125 62.33148438 11.3015625 63.28796875 11.328125 64.2734375 C10.94892585 67.42440184 9.95758485 68.57584053 8 71 C7.46421991 75.7978835 7.46421991 75.7978835 9.375 80.0625 C9.91125 80.701875 10.4475 81.34125 11 82 C12.4375 84.6875 12.4375 84.6875 13 88 C11.97719171 91.17226328 10.5765729 94.06835618 9 97 C8.34 97 7.68 97 7 97 C7.11339204 99.64680904 7.24012873 102.29177518 7.375 104.9375 C7.4059375 105.69224609 7.436875 106.44699219 7.46875 107.22460938 C7.5726315 109.15507395 7.77895614 111.07942081 8 113 C8.66 113.33 9.32 113.66 10 114 C10.28875 114.99 10.5775 115.98 10.875 117 C11.24625 117.99 11.6175 118.98 12 120 C14.03243548 120.96877057 14.03243548 120.96877057 16 121 C16 121.66 16 122.32 16 123 C16.598125 123.0825 17.19625 123.165 17.8125 123.25 C20.62932273 124.21576779 21.47799132 125.48868567 23 128 C23 128.66 23 129.32 23 130 C24.65 130 26.3 130 28 130 C28.495 133.465 28.495 133.465 29 137 C10.85 137 -7.3 137 -26 137 C-25 132 -25 132 -23 130 C-20.375 129.875 -20.375 129.875 -18 130 C-17.95875 129.2575 -17.9175 128.515 -17.875 127.75 C-16.63498112 123.8527978 -14.51756632 122.89948581 -11 121 C-10.01 121 -9.02 121 -8 121 C-7.29894157 119.34750513 -6.64199649 117.67632417 -6 116 C-5.54625 114.845 -5.0925 113.69 -4.625 112.5 C-4.41875 111.345 -4.2125 110.19 -4 109 C-4.61875 108.236875 -5.2375 107.47375 -5.875 106.6875 C-8.64244343 103.18749801 -8.5594935 100.92315813 -8.41015625 96.56640625 C-7.86923088 93.18175892 -6.59609789 90.66722562 -4.77734375 87.7890625 C-3.76093804 85.44979711 -4.11646079 84.35290333 -5 82 C-5.515625 81.2575 -6.03125 80.515 -6.5625 79.75 C-8.43098599 76.17550506 -8.85726186 72.90155397 -8 69 C-7.33871094 67.95714844 -6.67742187 66.91429687 -5.99609375 65.83984375 C-3.36742145 61.44914597 -3.47555527 57.44389849 -3.625 52.4375 C-3.62628906 51.61314453 -3.62757813 50.78878906 -3.62890625 49.93945312 C-3.69682483 45.21911188 -4.31057479 41.45393919 -6 37 C-7.13259161 31.83952976 -7.77053752 27.59253533 -5.0625 22.875 C-4.381875 21.92625 -3.70125 20.9775 -3 20 C-12.7557372 16.7480876 -25.79165965 19.12762783 -35.875 19.8125 C-37.61438843 19.91751831 -37.61438843 19.91751831 -39.38891602 20.0246582 C-40.47487061 20.10546631 -41.5608252 20.18627441 -42.6796875 20.26953125 C-43.65663574 20.33760986 -44.63358398 20.40568848 -45.64013672 20.47583008 C-48.36314174 20.79507135 -48.36314174 20.79507135 -50 24 C-50.66 24 -51.32 24 -52 24 C-51.79431396 24.50635986 -51.58862793 25.01271973 -51.37670898 25.53442383 C-46.91309528 36.54681595 -42.60472651 47.59856473 -38.54296875 58.765625 C-38.28563965 59.46623047 -38.02831055 60.16683594 -37.76318359 60.88867188 C-37.23952664 62.33735561 -36.73287641 63.79226622 -36.24072266 65.25195312 C-34.67538463 69.87584452 -34.67538463 69.87584452 -31 73 C-30.41015625 75.50390625 -30.41015625 75.50390625 -30.0625 78.5625 C-29.34870681 83.63226192 -28.09442974 87.69504147 -25.8046875 92.2578125 C-25 94 -25 94 -25 96 C-23.02 96.495 -23.02 96.495 -21 97 C-21.495 98.485 -21.495 98.485 -22 100 C-22.99 100 -23.98 100 -25 100 C-25.37125 100.928125 -25.37125 100.928125 -25.75 101.875 C-27.82713987 105.40613778 -30.89038269 105.96649303 -34.71875 107.13671875 C-41.17934175 108.48355651 -47.72873654 108.12175447 -54.28369141 107.88842773 C-56.49501955 107.81267062 -58.70586113 107.76364901 -60.91796875 107.71679688 C-71.30560238 107.43091143 -80.42319166 106.77108548 -88 99 C-88 98.01 -88 97.02 -88 96 C-86.68 96 -85.36 96 -84 96 C-83.86464844 95.45601563 -83.72929688 94.91203125 -83.58984375 94.3515625 C-83.39519531 93.57554687 -83.20054688 92.79953125 -83 92 C-82.77441406 91.10023438 -82.54882812 90.20046875 -82.31640625 89.2734375 C-82.06761719 88.31695312 -81.81882812 87.36046875 -81.5625 86.375 C-81.31628906 85.41335937 -81.07007813 84.45171875 -80.81640625 83.4609375 C-80 81 -80 81 -78 79 C-77.35232207 76.42938689 -77.35232207 76.42938689 -77 74 C-77.66 74 -78.32 74 -79 74 C-79 73.34 -79 72.68 -79 72 C-77.68 72 -76.36 72 -75 72 C-74.81824219 71.34773438 -74.63648437 70.69546875 -74.44921875 70.0234375 C-73.01508955 65.03708059 -71.32258079 60.64516159 -69 56 C-68.51690282 54.48685077 -68.06136608 52.96478128 -67.625 51.4375 C-65.61046679 44.41328102 -63.20040022 37.29493925 -59.86328125 30.78125 C-58.70767905 28.39684004 -58.72486201 26.61381091 -59 24 C-59.66 23.34 -60.32 22.68 -61 22 C-60.53846154 15.53846154 -60.53846154 15.53846154 -58 13 C-54.5 12.75 -54.5 12.75 -51 13 C-50.34 13.66 -49.68 14.32 -49 15 C-45.84906035 14.994872 -45.84906035 14.994872 -42.15625 14.5390625 C-41.47252319 14.46964447 -40.78879639 14.40022644 -40.08435059 14.32870483 C-37.8883623 14.10435492 -35.69426265 13.86559897 -33.5 13.625 C-30.63607914 13.31888324 -27.77155141 13.01947287 -24.90625 12.7265625 C-24.21813232 12.65584534 -23.53001465 12.58512817 -22.82104492 12.51226807 C-17.51540912 11.99221101 -12.32570582 11.86371225 -7 12 C-6.62875 10.9171875 -6.62875 10.9171875 -6.25 9.8125 C-4.88745796 6.74678041 -3.14629658 4.56170882 -1 2 C-0.67 1.34 -0.34 0.68 0 0 Z M57 20 C56.7733667 20.62455078 56.5467334 21.24910156 56.31323242 21.89257812 C55.27175756 24.7618772 54.22963314 27.63093995 53.1875 30.5 C52.83107422 31.48226562 52.47464844 32.46453125 52.10742188 33.4765625 C51.75615234 34.44335938 51.40488281 35.41015625 51.04296875 36.40625 C50.69927246 37.35757813 50.35557617 38.30890625 50.00146484 39.2890625 C49.36902903 41.00104867 48.71572118 42.70559756 48.03369141 44.3984375 C46.21479327 48.60406312 46.21479327 48.60406312 47 53 C47 52.34 47 51.68 47 51 C52.445 49.515 52.445 49.515 58 48 C58 38.76 58 29.52 58 20 C57.67 20 57.34 20 57 20 Z M61 21 C59.25454395 22.74545605 59.8697684 25.16124217 59.8671875 27.53125 C59.86589844 28.65144531 59.86460937 29.77164063 59.86328125 30.92578125 C59.86714844 32.10527344 59.87101563 33.28476563 59.875 34.5 C59.87113281 35.67949219 59.86726562 36.85898438 59.86328125 38.07421875 C59.86457031 39.19441406 59.86585938 40.31460938 59.8671875 41.46875 C59.86831543 42.50451172 59.86944336 43.54027344 59.87060547 44.60742188 C59.73034847 46.95297823 59.73034847 46.95297823 61 48 C62.84599688 48.39454223 64.70225822 48.74176866 66.5625 49.0625 C68.08037109 49.32740234 68.08037109 49.32740234 69.62890625 49.59765625 C70.41136719 49.73042969 71.19382813 49.86320312 72 50 C69.20950929 40.15387832 65.85919852 30.47904521 62 21 C61.67 21 61.34 21 61 21 Z M-56 29 C-56.21914062 29.54785156 -56.43828125 30.09570312 -56.6640625 30.66015625 C-56.98117188 31.45292969 -57.29828125 32.24570313 -57.625 33.0625 C-57.98980469 33.97644531 -58.35460937 34.89039063 -58.73046875 35.83203125 C-59.62359665 38.06072887 -60.522567 40.28708967 -61.42578125 42.51171875 C-67.40376276 57.02459858 -67.40376276 57.02459858 -72 72 C-66.39 72 -60.78 72 -55 72 C-55.33 70.68 -55.66 69.36 -56 68 C-55.67 67.67 -55.34 67.34 -55 67 C-54.91138008 64.1883662 -54.88477645 61.40141745 -54.90234375 58.58984375 C-54.9037587 57.74780899 -54.90517365 56.90577423 -54.90663147 56.03822327 C-54.91224737 53.33794665 -54.92480252 50.63775172 -54.9375 47.9375 C-54.94251295 46.11132932 -54.94707621 44.28515734 -54.95117188 42.45898438 C-54.96222196 37.97262458 -54.97949721 33.48632616 -55 29 C-55.33 29 -55.66 29 -56 29 Z M-53 31 C-53 44.53 -53 58.06 -53 72 C-47.72 72 -42.44 72 -37 72 C-37 71.01 -37 70.02 -37 69 C-37.66 69 -38.32 69 -39 69 C-39.17015625 68.34515625 -39.3403125 67.6903125 -39.515625 67.015625 C-44.36567181 48.2156179 -44.36567181 48.2156179 -53 31 Z M37 77 C34.1009238 81.21683811 33.08656644 85.06866002 32 90 C36.29 90 40.58 90 45 90 C43.576875 87.6178125 43.576875 87.6178125 42.125 85.1875 C41.59132812 84.29417969 41.05765625 83.40085937 40.5078125 82.48046875 C39.38116908 80.62705276 38.20313389 78.80470083 37 77 Z M82 82 C80.35 84.64 78.7 87.28 77 90 C79.97 90 82.94 90 86 90 C85.40138258 87.64828869 84.73075648 85.3140622 84 83 C83.34 82.67 82.68 82.34 82 82 Z M-77 84 C-77.99 85.485 -77.99 85.485 -79 87 C-78.67 87.99 -78.34 88.98 -78 90 C-77.34 89.34 -76.68 88.68 -76 88 C-76.3185177 85.89179203 -76.3185177 85.89179203 -77 84 Z M-80 90 C-80.33 91.98 -80.66 93.96 -81 96 C-79.68 96 -78.36 96 -77 96 C-77.57344937 93.13275314 -77.8614515 92.1385485 -80 90 Z " fill="#DC9E6D" transform="translate(144,95)"/>
<path d="M0 0 C0.495 0.99 0.495 0.99 1 2 C1.598125 2.2475 2.19625 2.495 2.8125 2.75 C6.74738974 4.99850843 8.60163249 8.80489748 10 13 C10.26961505 16.32097273 10.44499436 19.64159564 10.62109375 22.96875 C10.79211556 26.17265473 10.79211556 26.17265473 13 29 C13.43738696 30.71444889 13.80848688 32.44667784 14.125 34.1875 C14.29257813 35.08855469 14.46015625 35.98960937 14.6328125 36.91796875 C14.75398438 37.60503906 14.87515625 38.29210937 15 39 C15.99 39 16.98 39 18 39 C17.6875 40.9375 17.6875 40.9375 17 43 C15.515 43.495 15.515 43.495 14 44 C14 44.66 14 45.32 14 46 C12.68 46 11.36 46 10 46 C9.67 46.99 9.34 47.98 9 49 C1.19088588 50.06718913 -6.50043288 50.14920461 -14.375 50.125 C-15.62539062 50.12886719 -16.87578125 50.13273437 -18.1640625 50.13671875 C-40.01815462 50.11385882 -40.01815462 50.11385882 -45.6875 44.9375 C-46.93080078 43.83728516 -46.93080078 43.83728516 -48.19921875 42.71484375 C-48.79347656 42.14894531 -49.38773438 41.58304688 -50 41 C-49.67 40.34 -49.34 39.68 -49 39 C-48.01 39 -47.02 39 -46 39 C-45.88011719 38.28457031 -45.76023438 37.56914062 -45.63671875 36.83203125 C-44.97917475 33.90737234 -44.01211395 31.43224779 -42.8125 28.6875 C-41.24629893 25.05717267 -39.7749833 21.42847906 -38.4765625 17.6953125 C-38.22028076 16.96868408 -37.96399902 16.24205566 -37.69995117 15.4934082 C-37.19753971 14.05631515 -36.70777079 12.61473031 -36.23168945 11.16870117 C-35.52734375 9.17578125 -35.52734375 9.17578125 -34 6 C-31.89453125 5.1953125 -31.89453125 5.1953125 -30 5 C-29.5875 4.195625 -29.175 3.39125 -28.75 2.5625 C-26.65611313 -0.50354863 -24.96411028 -1.02990518 -21.375 -1.72265625 C-13.97830879 -2.5864146 -7.08605832 -2.36201944 0 0 Z M-37 26 C-39.8990762 30.21683811 -40.91343356 34.06866002 -42 39 C-37.71 39 -33.42 39 -29 39 C-30.423125 36.6178125 -30.423125 36.6178125 -31.875 34.1875 C-32.40867188 33.29417969 -32.94234375 32.40085937 -33.4921875 31.48046875 C-34.61883092 29.62705276 -35.79686611 27.80470083 -37 26 Z M8 31 C6.35 33.64 4.7 36.28 3 39 C5.97 39 8.94 39 12 39 C11.40138258 36.64828869 10.73075648 34.3140622 10 32 C9.34 31.67 8.68 31.34 8 31 Z " fill="#F8B161" transform="translate(218,146)"/>
<path d="M0 0 C0.91007812 0.00902344 1.82015625 0.01804687 2.7578125 0.02734375 C3.80582031 0.04474609 3.80582031 0.04474609 4.875 0.0625 C4.875 0.3925 4.875 0.7225 4.875 1.0625 C4.24851563 1.09988281 3.62203125 1.13726562 2.9765625 1.17578125 C2.15929687 1.24152344 1.34203125 1.30726562 0.5 1.375 C-0.71816406 1.46201172 -0.71816406 1.46201172 -1.9609375 1.55078125 C-4.50421338 1.89240528 -4.50421338 1.89240528 -6.125 5.0625 C-6.785 5.0625 -7.445 5.0625 -8.125 5.0625 C-7.91931396 5.56885986 -7.71362793 6.07521973 -7.50170898 6.59692383 C-3.03809528 17.60931595 1.27027349 28.66106473 5.33203125 39.828125 C5.58936035 40.52873047 5.84668945 41.22933594 6.11181641 41.95117188 C6.63547336 43.39985561 7.14212359 44.85476622 7.63427734 46.31445312 C9.19961537 50.93834452 9.19961537 50.93834452 12.875 54.0625 C13.46484375 56.56640625 13.46484375 56.56640625 13.8125 59.625 C14.52629319 64.69476192 15.78057026 68.75754147 18.0703125 73.3203125 C18.875 75.0625 18.875 75.0625 18.875 77.0625 C20.855 77.5575 20.855 77.5575 22.875 78.0625 C22.38 79.5475 22.38 79.5475 21.875 81.0625 C20.885 81.0625 19.895 81.0625 18.875 81.0625 C18.50375 81.990625 18.50375 81.990625 18.125 82.9375 C16.04786013 86.46863778 12.98461731 87.02899303 9.15625 88.19921875 C2.69565825 89.54605651 -3.85373654 89.18425447 -10.40869141 88.95092773 C-12.62001955 88.87517062 -14.83086113 88.82614901 -17.04296875 88.77929688 C-27.43060238 88.49341143 -36.54819166 87.83358548 -44.125 80.0625 C-44.125 79.0725 -44.125 78.0825 -44.125 77.0625 C-42.805 77.0625 -41.485 77.0625 -40.125 77.0625 C-39.98964844 76.51851563 -39.85429688 75.97453125 -39.71484375 75.4140625 C-39.52019531 74.63804687 -39.32554688 73.86203125 -39.125 73.0625 C-38.89941406 72.16273438 -38.67382812 71.26296875 -38.44140625 70.3359375 C-38.19261719 69.37945312 -37.94382812 68.42296875 -37.6875 67.4375 C-37.44128906 66.47585937 -37.19507813 65.51421875 -36.94140625 64.5234375 C-36.125 62.0625 -36.125 62.0625 -34.125 60.0625 C-33.47732207 57.49188689 -33.47732207 57.49188689 -33.125 55.0625 C-33.785 55.0625 -34.445 55.0625 -35.125 55.0625 C-35.125 54.4025 -35.125 53.7425 -35.125 53.0625 C-33.805 53.0625 -32.485 53.0625 -31.125 53.0625 C-30.94324219 52.41023438 -30.76148437 51.75796875 -30.57421875 51.0859375 C-29.14008955 46.09958059 -27.44758079 41.70766159 -25.125 37.0625 C-24.64190282 35.54935077 -24.18636608 34.02728128 -23.75 32.5 C-21.74227877 25.49953284 -19.37251644 18.34275315 -15.98046875 11.8828125 C-14.75151623 9.26778111 -14.9957237 6.90657857 -15.125 4.0625 C-12.485 4.0625 -9.845 4.0625 -7.125 4.0625 C-7.125 3.0725 -7.125 2.0825 -7.125 1.0625 C-4.60024538 -0.19987731 -2.81299534 -0.03606404 0 0 Z M-12.125 10.0625 C-12.34414062 10.61035156 -12.56328125 11.15820312 -12.7890625 11.72265625 C-13.10617188 12.51542969 -13.42328125 13.30820313 -13.75 14.125 C-14.11480469 15.03894531 -14.47960937 15.95289063 -14.85546875 16.89453125 C-15.74859665 19.12322887 -16.647567 21.34958967 -17.55078125 23.57421875 C-23.52876276 38.08709858 -23.52876276 38.08709858 -28.125 53.0625 C-22.515 53.0625 -16.905 53.0625 -11.125 53.0625 C-11.455 51.7425 -11.785 50.4225 -12.125 49.0625 C-11.795 48.7325 -11.465 48.4025 -11.125 48.0625 C-11.03638008 45.2508662 -11.00977645 42.46391745 -11.02734375 39.65234375 C-11.0287587 38.81030899 -11.03017365 37.96827423 -11.03163147 37.10072327 C-11.03724737 34.40044665 -11.04980252 31.70025172 -11.0625 29 C-11.06751295 27.17382932 -11.07207621 25.34765734 -11.07617188 23.52148438 C-11.08722196 19.03512458 -11.10449721 14.54882616 -11.125 10.0625 C-11.455 10.0625 -11.785 10.0625 -12.125 10.0625 Z M-9.125 12.0625 C-9.125 25.5925 -9.125 39.1225 -9.125 53.0625 C-3.845 53.0625 1.435 53.0625 6.875 53.0625 C6.875 52.0725 6.875 51.0825 6.875 50.0625 C6.215 50.0625 5.555 50.0625 4.875 50.0625 C4.70484375 49.40765625 4.5346875 48.7528125 4.359375 48.078125 C-0.49067181 29.2781179 -0.49067181 29.2781179 -9.125 12.0625 Z M-33.125 65.0625 C-34.115 66.5475 -34.115 66.5475 -35.125 68.0625 C-34.795 69.0525 -34.465 70.0425 -34.125 71.0625 C-33.465 70.4025 -32.805 69.7425 -32.125 69.0625 C-32.4435177 66.95429203 -32.4435177 66.95429203 -33.125 65.0625 Z M-36.125 71.0625 C-36.455 73.0425 -36.785 75.0225 -37.125 77.0625 C-35.805 77.0625 -34.485 77.0625 -33.125 77.0625 C-33.69844937 74.19525314 -33.9864515 73.2010485 -36.125 71.0625 Z " fill="#6C89D4" transform="translate(100.125,113.9375)"/>
<path d="M0 0 C1.32 0 2.64 0 4 0 C4.0825 0.78375 4.165 1.5675 4.25 2.375 C4.72214303 5.13680512 4.72214303 5.13680512 7 6.25 C7.99 6.62125 7.99 6.62125 9 7 C9.495 7.495 9.495 7.495 10 8 C11.80207483 8.02917573 13.60538323 7.98619982 15.40625 7.9140625 C16.53571045 7.87079834 17.6651709 7.82753418 18.82885742 7.78295898 C20.04033447 7.73083252 21.25181152 7.67870605 22.5 7.625 C24.32978394 7.55164429 24.32978394 7.55164429 26.1965332 7.47680664 C35.4714282 7.09410318 44.73763575 6.61400722 54 6 C54.33 5.01 54.66 4.02 55 3 C61.0546875 2.8046875 61.0546875 2.8046875 63 3 C65 5 65 5 65.25 8.4375 C65 12 65 12 63 15 C63.41728338 17.34711763 63.41728338 17.34711763 64.44921875 19.859375 C64.97999023 21.28636719 64.97999023 21.28636719 65.52148438 22.7421875 C65.90626953 23.73476562 66.29105469 24.72734375 66.6875 25.75 C67.23567383 27.21566406 67.23567383 27.21566406 67.79492188 28.7109375 C69.33499867 32.79944191 70.91280978 36.86033992 72.6640625 40.86328125 C73.87275162 43.70122676 74.83567948 46.47640961 75.6875 49.4375 C76.06455078 50.73494141 76.06455078 50.73494141 76.44921875 52.05859375 C76.72185547 53.01958984 76.72185547 53.01958984 77 54 C76.01 53.67 75.02 53.34 74 53 C74 52.34 74 51.68 74 51 C73.34 51 72.68 51 72 51 C69.33514825 43.70515442 66.71954324 36.39487642 64.1484375 29.06640625 C62.98264045 25.79011198 62.98264045 25.79011198 61 22 C61 30.25 61 38.5 61 47 C64.3 47.66 67.6 48.32 71 49 C71 49.33 71 49.66 71 50 C69.91460937 49.98839844 68.82921875 49.97679687 67.7109375 49.96484375 C66.26562673 49.95545862 64.82031409 49.94635919 63.375 49.9375 C62.66214844 49.92912109 61.94929688 49.92074219 61.21484375 49.91210938 C57.02655562 49.89289704 53.1271538 50.1732673 49 51 C51 49 51 49 58 48 C57.505 35.625 57.505 35.625 57 23 C55.948125 25.84625 54.89625 28.6925 53.8125 31.625 C53.46646729 32.55836182 53.12043457 33.49172363 52.76391602 34.45336914 C51.30832211 38.39130277 49.87192549 42.33122512 48.52734375 46.30859375 C48.10582031 47.54738281 47.68429688 48.78617188 47.25 50.0625 C46.88390625 51.16722656 46.5178125 52.27195313 46.140625 53.41015625 C45 56 45 56 42 58 C40.52874071 54.16193229 41.52446198 51.95634238 43.0625 48.25 C43.5265625 47.10402344 43.990625 45.95804688 44.46875 44.77734375 C44.84386719 43.86057861 44.84386719 43.86057861 45.2265625 42.92529297 C46.84241454 38.90300472 48.32064677 34.82719702 49.81835938 30.75976562 C51.55432592 26.08040173 53.47795237 21.52238552 55.62890625 17.015625 C56.21791453 14.90048488 56.21791453 14.90048488 54.95703125 12.7265625 C53.08922463 10.73473063 53.08922463 10.73473063 50.2578125 10.7578125 C48.70707031 10.93957031 48.70707031 10.93957031 47.125 11.125 C46.09632813 11.23070313 45.06765625 11.33640625 44.0078125 11.4453125 C41.05037239 11.87233842 41.05037239 11.87233842 38.671875 13.01953125 C34.85541913 14.42001433 31.16180893 14.42661399 27.125 14.5625 C19.01845705 14.86062017 19.01845705 14.86062017 11 16 C9.60761953 17.86747263 9.60761953 17.86747263 9 20 C8.34 20.66 7.68 21.32 7 22 C7.99 22.66 8.98 23.32 10 24 C11.00370475 29.01852377 11.13353892 32.96204923 10 38 C9.01 38 8.02 38 7 38 C7 38.99 7 39.98 7 41 C3.04 41 -0.92 41 -5 41 C-6.80952804 34.08121633 -7.95939493 28.68366247 -4.4375 22.0625 C-3.963125 21.381875 -3.48875 20.70125 -3 20 C-16.89751659 15.36749447 -36.40659645 19.44372265 -51 20 C-51 20.99 -51 21.98 -51 23 C-56.41538462 24.23076923 -56.41538462 24.23076923 -59.375 23.0625 C-60.179375 22.5365625 -60.179375 22.5365625 -61 22 C-60.25 15.25 -60.25 15.25 -58 13 C-54.5 12.75 -54.5 12.75 -51 13 C-50.34 13.66 -49.68 14.32 -49 15 C-45.84906035 14.994872 -45.84906035 14.994872 -42.15625 14.5390625 C-41.47252319 14.46964447 -40.78879639 14.40022644 -40.08435059 14.32870483 C-37.8883623 14.10435492 -35.69426265 13.86559897 -33.5 13.625 C-30.63607914 13.31888324 -27.77155141 13.01947287 -24.90625 12.7265625 C-24.21813232 12.65584534 -23.53001465 12.58512817 -22.82104492 12.51226807 C-17.51540912 11.99221101 -12.32570582 11.86371225 -7 12 C-6.7525 11.278125 -6.505 10.55625 -6.25 9.8125 C-4.88745796 6.74678041 -3.14629658 4.56170882 -1 2 C-0.67 1.34 -0.34 0.68 0 0 Z " fill="#DD9C75" transform="translate(144,95)"/>
<path d="M0 0 C0.91007812 0.00902344 1.82015625 0.01804687 2.7578125 0.02734375 C3.80582031 0.04474609 3.80582031 0.04474609 4.875 0.0625 C4.875 0.3925 4.875 0.7225 4.875 1.0625 C4.24851563 1.09988281 3.62203125 1.13726562 2.9765625 1.17578125 C2.15929687 1.24152344 1.34203125 1.30726562 0.5 1.375 C-0.71816406 1.46201172 -0.71816406 1.46201172 -1.9609375 1.55078125 C-4.50421338 1.89240528 -4.50421338 1.89240528 -6.125 5.0625 C-6.785 5.0625 -7.445 5.0625 -8.125 5.0625 C-7.91931396 5.56885986 -7.71362793 6.07521973 -7.50170898 6.59692383 C-3.28792003 16.9929615 0.81752944 27.41196898 4.61547852 37.96801758 C4.88416748 38.71075928 5.15285645 39.45350098 5.4296875 40.21875 C5.66155762 40.86650391 5.89342773 41.51425781 6.13232422 42.18164062 C6.86291564 44.11982093 6.86291564 44.11982093 7.92358398 46.11645508 C9.21900346 48.76613141 9.59199089 51.34557911 10.0625 54.25 C10.24167969 55.31605469 10.42085937 56.38210937 10.60546875 57.48046875 C10.69441406 58.33253906 10.78335938 59.18460938 10.875 60.0625 C9.875 61.0625 9.875 61.0625 5.90600586 61.17602539 C4.13394393 61.1758662 2.3618774 61.17016785 0.58984375 61.16015625 C-0.34097519 61.1587413 -1.27179413 61.15732635 -2.2308197 61.15586853 C-5.21641191 61.15025172 -8.20193029 61.1376964 -11.1875 61.125 C-13.20637913 61.11998716 -15.22525943 61.11542388 -17.24414062 61.11132812 C-22.20445572 61.10027683 -27.16471532 61.08300095 -32.125 61.0625 C-32.455 59.0825 -32.785 57.1025 -33.125 55.0625 C-33.785 55.0625 -34.445 55.0625 -35.125 55.0625 C-35.125 54.4025 -35.125 53.7425 -35.125 53.0625 C-33.805 53.0625 -32.485 53.0625 -31.125 53.0625 C-30.94324219 52.41023438 -30.76148437 51.75796875 -30.57421875 51.0859375 C-29.14008955 46.09958059 -27.44758079 41.70766159 -25.125 37.0625 C-24.64190282 35.54935077 -24.18636608 34.02728128 -23.75 32.5 C-21.74227877 25.49953284 -19.37251644 18.34275315 -15.98046875 11.8828125 C-14.75151623 9.26778111 -14.9957237 6.90657857 -15.125 4.0625 C-12.485 4.0625 -9.845 4.0625 -7.125 4.0625 C-7.125 3.0725 -7.125 2.0825 -7.125 1.0625 C-4.60024538 -0.19987731 -2.81299534 -0.03606404 0 0 Z M-12.125 10.0625 C-12.34414062 10.61035156 -12.56328125 11.15820312 -12.7890625 11.72265625 C-13.10617188 12.51542969 -13.42328125 13.30820313 -13.75 14.125 C-14.11480469 15.03894531 -14.47960937 15.95289063 -14.85546875 16.89453125 C-15.74859665 19.12322887 -16.647567 21.34958967 -17.55078125 23.57421875 C-23.52876276 38.08709858 -23.52876276 38.08709858 -28.125 53.0625 C-22.515 53.0625 -16.905 53.0625 -11.125 53.0625 C-11.455 51.7425 -11.785 50.4225 -12.125 49.0625 C-11.795 48.7325 -11.465 48.4025 -11.125 48.0625 C-11.03638008 45.2508662 -11.00977645 42.46391745 -11.02734375 39.65234375 C-11.0287587 38.81030899 -11.03017365 37.96827423 -11.03163147 37.10072327 C-11.03724737 34.40044665 -11.04980252 31.70025172 -11.0625 29 C-11.06751295 27.17382932 -11.07207621 25.34765734 -11.07617188 23.52148438 C-11.08722196 19.03512458 -11.10449721 14.54882616 -11.125 10.0625 C-11.455 10.0625 -11.785 10.0625 -12.125 10.0625 Z M-9.125 12.0625 C-9.125 25.5925 -9.125 39.1225 -9.125 53.0625 C-3.845 53.0625 1.435 53.0625 6.875 53.0625 C6.875 52.0725 6.875 51.0825 6.875 50.0625 C6.215 50.0625 5.555 50.0625 4.875 50.0625 C4.70484375 49.40765625 4.5346875 48.7528125 4.359375 48.078125 C-0.49067181 29.2781179 -0.49067181 29.2781179 -9.125 12.0625 Z " fill="#8284B8" transform="translate(100.125,113.9375)"/>
<path d="M0 0 C6.27 0 12.54 0 19 0 C19 0.66 19 1.32 19 2 C20.32 2.33 21.64 2.66 23 3 C23 3.66 23 4.32 23 5 C23.598125 5.0825 24.19625 5.165 24.8125 5.25 C27.62932273 6.21576779 28.47799132 7.48868567 30 10 C30 10.66 30 11.32 30 12 C31.65 12 33.3 12 35 12 C35.495 15.465 35.495 15.465 36 19 C17.85 19 -0.3 19 -19 19 C-18 14 -18 14 -16 12 C-13.375 11.875 -13.375 11.875 -11 12 C-10.95875 11.2575 -10.9175 10.515 -10.875 9.75 C-9.63498112 5.8527978 -7.51756632 4.89948581 -4 3 C-3.01 3 -2.02 3 -1 3 C-0.67 2.01 -0.34 1.02 0 0 Z " fill="#D69260" transform="translate(137,213)"/>
<path d="M0 0 C0.495 0.99 0.495 0.99 1 2 C1.598125 2.2475 2.19625 2.495 2.8125 2.75 C6.74738974 4.99850843 8.60163249 8.80489748 10 13 C10.06970052 15.39490986 10.08448003 17.79167691 10.0625 20.1875 C10.05347656 21.45980469 10.04445312 22.73210937 10.03515625 24.04296875 C10.02355469 25.01878906 10.01195312 25.99460938 10 27 C9.01 27.33 8.02 27.66 7 28 C7 29.32 7 30.64 7 32 C6.01 32 5.02 32 4 32 C4.33 32.99 4.66 33.98 5 35 C3.02 35 1.04 35 -1 35 C-0.65066406 34.45730469 -0.30132812 33.91460937 0.05859375 33.35546875 C0.74115234 32.28232422 0.74115234 32.28232422 1.4375 31.1875 C1.88996094 30.47980469 2.34242188 29.77210938 2.80859375 29.04296875 C5.16766407 24.99774326 5.16725109 21.59940506 5 17 C4.505 16.01 4.505 16.01 4 15 C4.02320313 15.77085937 4.04640625 16.54171875 4.0703125 17.3359375 C4.08835938 18.33882812 4.10640625 19.34171875 4.125 20.375 C4.14820313 21.37273437 4.17140625 22.37046875 4.1953125 23.3984375 C4 26 4 26 2 28 C2.08701172 26.948125 2.08701172 26.948125 2.17578125 25.875 C2.50999518 18.8469584 1.71547541 14.34420547 -3 9 C-6.95413091 5.3847946 -10.88435631 5.73806056 -15.98828125 5.89453125 C-16.98408203 5.94673828 -16.98408203 5.94673828 -18 6 C-17.34 7.32 -16.68 8.64 -16 10 C-14.68 10 -13.36 10 -12 10 C-12 13.63 -12 17.26 -12 21 C-9.36 21 -6.72 21 -4 21 C-4 22.98 -4 24.96 -4 27 C-6.62527189 27.05382106 -9.24944713 27.09358313 -11.875 27.125 C-12.62136719 27.14175781 -13.36773437 27.15851563 -14.13671875 27.17578125 C-16.09194461 27.1933959 -18.04742021 27.10320189 -20 27 C-22 25 -22 25 -22.1953125 21.3046875 C-22.182009 19.82799892 -22.15814835 18.35137642 -22.125 16.875 C-22.11597656 16.12089844 -22.10695312 15.36679688 -22.09765625 14.58984375 C-22.0740687 12.72642746 -22.03819719 10.86317407 -22 9 C-26.36050685 12.79725576 -26.36050685 12.79725576 -28.1328125 17.98828125 C-28.11892562 22.1196287 -28.03989637 25.97040158 -27 30 C-27.66 29.67 -28.32 29.34 -29 29 C-29 28.34 -29 27.68 -29 27 C-29.66 27 -30.32 27 -31 27 C-31.13277344 26.28972656 -31.26554688 25.57945312 -31.40234375 24.84765625 C-31.57894531 23.92855469 -31.75554687 23.00945312 -31.9375 22.0625 C-32.11152344 21.14597656 -32.28554687 20.22945312 -32.46484375 19.28515625 C-32.77714988 17.04710156 -32.77714988 17.04710156 -34 16 C-34.26244446 12.06333307 -34.21060366 9.3159055 -32 6 C-30.68671343 4.64691687 -29.35500919 3.31129922 -28 2 C-27.67 1.34 -27.34 0.68 -27 0 C-18.07826362 -2.97391213 -8.92173638 -2.97391213 0 0 Z " fill="#F6BB70" transform="translate(218,146)"/>
<path d="M0 0 C1.32 0 2.64 0 4 0 C4.12375 1.175625 4.12375 1.175625 4.25 2.375 C4.72214303 5.13680512 4.72214303 5.13680512 7 6.25 C7.66 6.4975 8.32 6.745 9 7 C9.33 7.33 9.66 7.66 10 8 C11.80207483 8.02917573 13.60538323 7.98619982 15.40625 7.9140625 C16.53571045 7.87079834 17.6651709 7.82753418 18.82885742 7.78295898 C20.04033447 7.73083252 21.25181152 7.67870605 22.5 7.625 C24.32978394 7.55164429 24.32978394 7.55164429 26.1965332 7.47680664 C35.4714282 7.09410318 44.73763575 6.61400722 54 6 C54.33 5.01 54.66 4.02 55 3 C61.0546875 2.8046875 61.0546875 2.8046875 63 3 C65 5 65 5 65.25 8.4375 C65 12 65 12 63 15 C63.41728338 17.34711763 63.41728338 17.34711763 64.44921875 19.859375 C64.97999023 21.28636719 64.97999023 21.28636719 65.52148438 22.7421875 C65.90626953 23.73476562 66.29105469 24.72734375 66.6875 25.75 C67.23567383 27.21566406 67.23567383 27.21566406 67.79492188 28.7109375 C69.33499867 32.79944191 70.91280978 36.86033992 72.6640625 40.86328125 C73.87275162 43.70122676 74.83567948 46.47640961 75.6875 49.4375 C75.93886719 50.30246094 76.19023437 51.16742188 76.44921875 52.05859375 C76.63097656 52.69925781 76.81273437 53.33992188 77 54 C75.515 53.505 75.515 53.505 74 53 C74 52.34 74 51.68 74 51 C73.34 51 72.68 51 72 51 C69.33514825 43.70515442 66.71954324 36.39487642 64.1484375 29.06640625 C62.98264045 25.79011198 62.98264045 25.79011198 61 22 C61 30.25 61 38.5 61 47 C64.3 47.66 67.6 48.32 71 49 C71 49.33 71 49.66 71 50 C69.91460937 49.98839844 68.82921875 49.97679687 67.7109375 49.96484375 C66.26562673 49.95545862 64.82031409 49.94635919 63.375 49.9375 C62.66214844 49.92912109 61.94929688 49.92074219 61.21484375 49.91210938 C57.02655562 49.89289704 53.1271538 50.1732673 49 51 C51 49 51 49 58 48 C57.505 35.625 57.505 35.625 57 23 C55.948125 25.84625 54.89625 28.6925 53.8125 31.625 C53.46646729 32.55836182 53.12043457 33.49172363 52.76391602 34.45336914 C51.30832211 38.39130277 49.87192549 42.33122512 48.52734375 46.30859375 C48.10582031 47.54738281 47.68429688 48.78617188 47.25 50.0625 C46.88390625 51.16722656 46.5178125 52.27195313 46.140625 53.41015625 C45 56 45 56 42 58 C40.52874071 54.16193229 41.52446198 51.95634238 43.0625 48.25 C43.5265625 47.10402344 43.990625 45.95804688 44.46875 44.77734375 C44.84386719 43.86057861 44.84386719 43.86057861 45.2265625 42.92529297 C46.84241454 38.90300472 48.32064677 34.82719702 49.81835938 30.75976562 C51.55432592 26.08040173 53.47795237 21.52238552 55.62890625 17.015625 C56.21791453 14.90048488 56.21791453 14.90048488 54.95703125 12.7265625 C53.08922463 10.73473063 53.08922463 10.73473063 50.2578125 10.7578125 C48.70707031 10.93957031 48.70707031 10.93957031 47.125 11.125 C46.09632813 11.23070313 45.06765625 11.33640625 44.0078125 11.4453125 C41.06158195 11.86573103 41.06158195 11.86573103 38.75390625 13.0078125 C34.52309683 14.53210412 30.27819736 14.55237456 25.8125 14.75 C24.89791016 14.80542969 23.98332031 14.86085938 23.04101562 14.91796875 C22.16767578 14.96050781 21.29433594 15.00304687 20.39453125 15.046875 C19.59893799 15.08651367 18.80334473 15.12615234 17.98364258 15.16699219 C16 15 16 15 14 13 C16.05078125 12.77213542 18.1015625 12.54427083 20.15234375 12.31640625 C22.01140229 12.18113386 22.01140229 12.18113386 23 11 C20.3753399 10.80569145 17.75053235 10.61926762 15.125 10.4375 C14.37863281 10.38142578 13.63226563 10.32535156 12.86328125 10.26757812 C8.80938458 9.86611075 8.80938458 9.86611075 5 11 C5.33 9.35 5.66 7.7 6 6 C4.741875 6.165 3.48375 6.33 2.1875 6.5 C-0.26456585 6.82158241 -2.51650694 7 -5 7 C-4.360625 6.21625 -3.72125 5.4325 -3.0625 4.625 C-1.01857687 2.20460719 -1.01857687 2.20460719 0 0 Z " fill="#8B6B66" transform="translate(144,95)"/>
<path d="M0 0 C5.44170824 2.34982856 8.63079712 6.66929352 11 12 C11 10.68 11 9.36 11 8 C11.66 8.33 12.32 8.66 13 9 C14.66848725 14.00546176 14.59470227 18.25027954 12.4375 23.0625 C9.64142551 28.19529389 5.570667 32.143111 0 34 C-1.72795352 34.06802967 -3.45835365 34.08495645 -5.1875 34.0625 C-6.08855469 34.05347656 -6.98960937 34.04445312 -7.91796875 34.03515625 C-8.60503906 34.02355469 -9.29210937 34.01195312 -10 34 C-9.01 33.34 -8.02 32.68 -7 32 C-7.55429688 31.80664062 -8.10859375 31.61328125 -8.6796875 31.4140625 C-9.40414062 31.15367187 -10.12859375 30.89328125 -10.875 30.625 C-11.59429687 30.36976563 -12.31359375 30.11453125 -13.0546875 29.8515625 C-15 29 -15 29 -17 27 C-16.625 24.375 -16.625 24.375 -16 22 C-15.01 22 -14.02 22 -13 22 C-13 22.99 -13 23.98 -13 25 C-7.39 25 -1.78 25 4 25 C4 23.68 4 22.36 4 21 C2.35 21 0.7 21 -1 21 C-1 20.67 -1 20.34 -1 20 C0.65 20 2.3 20 4 20 C4 18.68 4 17.36 4 16 C1.36 16 -1.28 16 -4 16 C-4 12.37 -4 8.74 -4 5 C-5.32 5 -6.64 5 -8 5 C-8 6.98 -8 8.96 -8 11 C-8.33 11 -8.66 11 -9 11 C-9.33 7.7 -9.66 4.4 -10 1 C-6.80436932 -0.59781534 -3.4765367 -0.36841911 0 0 Z " fill="#F09A4F" transform="translate(210,151)"/>
<path d="M0 0 C8.25 0 16.5 0 25 0 C25 1.98 25 3.96 25 6 C34.57 6 44.14 6 54 6 C54 6.33 54 6.66 54 7 C52.97060303 7.07516846 52.97060303 7.07516846 51.92041016 7.15185547 C48.8211507 7.38347272 45.72315407 7.62905649 42.625 7.875 C41.00464844 7.99294922 41.00464844 7.99294922 39.3515625 8.11328125 C37.8046875 8.23896484 37.8046875 8.23896484 36.2265625 8.3671875 C34.79691162 8.47716064 34.79691162 8.47716064 33.33837891 8.58935547 C30.81549808 8.80173834 30.81549808 8.80173834 29 11 C26.8359375 11.4140625 26.8359375 11.4140625 24.375 11.625 C23.55773437 11.69976562 22.74046875 11.77453125 21.8984375 11.8515625 C21.27195312 11.90054688 20.64546875 11.94953125 20 12 C20 12.66 20 13.32 20 14 C16.9166866 14.02911321 13.83340875 14.04683682 10.75 14.0625 C9.87730469 14.07087891 9.00460938 14.07925781 8.10546875 14.08789062 C7.26113281 14.09111328 6.41679688 14.09433594 5.546875 14.09765625 C4.77182617 14.10289307 3.99677734 14.10812988 3.19824219 14.11352539 C1.00716402 14.00036998 -0.89637861 13.60552448 -3 13 C-3.12375 12.360625 -3.2475 11.72125 -3.375 11.0625 C-3.58125 10.381875 -3.7875 9.70125 -4 9 C-4.66 8.67 -5.32 8.34 -6 8 C-6.33 8.66 -6.66 9.32 -7 10 C-8.02104551 9.02149805 -9.0206121 8.02019573 -10 7 C-10 6.67 -10 6.34 -10 6 C-6.7 5.67 -3.4 5.34 0 5 C0 3.35 0 1.7 0 0 Z " fill="#E0A573" transform="translate(67,186)"/>
<path d="M0 0 C3.48614178 3.02132287 5.30362978 5.38654733 6 10 C4.97253866 13.17060039 3.57656834 16.06836466 2 19 C1.34 19 0.68 19 0 19 C0.11339204 21.64680904 0.24012873 24.29177518 0.375 26.9375 C0.4059375 27.69224609 0.436875 28.44699219 0.46875 29.22460938 C0.5726315 31.15507395 0.77895614 33.07942081 1 35 C1.66 35.33 2.32 35.66 3 36 C3.33 37.32 3.66 38.64 4 40 C-1.94 40 -7.88 40 -14 40 C-13.443125 38.618125 -12.88625 37.23625 -12.3125 35.8125 C-11.40769086 33.3629589 -11.40769086 33.3629589 -11 31 C-11.804375 29.7934375 -11.804375 29.7934375 -12.625 28.5625 C-14 26 -14 26 -13.34375 23.7578125 C-10.78163128 18.35436981 -7.58140161 14.29187345 -3.515625 9.9609375 C-1.09608031 6.83049565 -0.62119607 3.86522001 0 0 Z " fill="#D99769" transform="translate(151,173)"/>
<path d="M0 0 C2.96527758 2.4453385 3.55582214 4.44602347 4.1875 8.1875 C4.34605469 9.08855469 4.50460938 9.98960937 4.66796875 10.91796875 C4.83232422 11.94857422 4.83232422 11.94857422 5 13 C5.99 13 6.98 13 8 13 C7.6875 14.9375 7.6875 14.9375 7 17 C5.515 17.495 5.515 17.495 4 18 C4 18.66 4 19.32 4 20 C2.68 20 1.36 20 0 20 C-0.495 21.485 -0.495 21.485 -1 23 C-8.80911412 24.06718913 -16.50043288 24.14920461 -24.375 24.125 C-25.62539062 24.12886719 -26.87578125 24.13273437 -28.1640625 24.13671875 C-50.01815462 24.11385882 -50.01815462 24.11385882 -55.6875 18.9375 C-56.51636719 18.20402344 -57.34523437 17.47054687 -58.19921875 16.71484375 C-58.79347656 16.14894531 -59.38773438 15.58304688 -60 15 C-59.34 14.34 -58.68 13.68 -58 13 C-58 13.66 -58 14.32 -58 15 C-55.36 15 -52.72 15 -50 15 C-50 17 -50 19 -50 21 C-33.35390251 21.81346094 -33.35390251 21.81346094 -18 16 C-17.67 15.67 -17.34 15.34 -17 15 C-15.48530552 14.76807135 -13.96245438 14.58784762 -12.4375 14.4375 C-11.61121094 14.35371094 -10.78492188 14.26992187 -9.93359375 14.18359375 C-9.29550781 14.12300781 -8.65742188 14.06242188 -8 14 C-8.99 12.35 -9.98 10.7 -11 9 C-9.35 8.67 -7.7 8.34 -6 8 C-6 7.34 -6 6.68 -6 6 C-5.01 6 -4.02 6 -3 6 C-3 4.68 -3 3.36 -3 2 C-2.01 1.34 -1.02 0.68 0 0 Z M-2 5 C-3.65 7.64 -5.3 10.28 -7 13 C-4.03 13 -1.06 13 2 13 C1.40138258 10.64828869 0.73075648 8.3140622 0 6 C-0.66 5.67 -1.32 5.34 -2 5 Z " fill="#B67052" transform="translate(228,172)"/>
<path d="M0 0 C1.72974441 0.00015918 3.45949355 0.0058569 5.18920898 0.01586914 C6.09783188 0.01728409 7.00645477 0.01869904 7.94261169 0.02015686 C10.85687494 0.02577346 13.77106254 0.03832874 16.68530273 0.05102539 C18.65600475 0.05603825 20.62670797 0.06060153 22.59741211 0.06469727 C27.43923832 0.07574828 32.28100768 0.09302401 37.12280273 0.11352539 C37.12280273 2.75352539 37.12280273 5.39352539 37.12280273 8.11352539 C23.26280273 8.11352539 9.40280273 8.11352539 -4.87719727 8.11352539 C-4.87719727 0.14280566 -4.87719727 0.14280566 0 0 Z " fill="#FBDEC6" transform="translate(73.877197265625,175.886474609375)"/>
<path d="M0 0 C5 7.5 5 7.5 5 11 C6.32 11.33 7.64 11.66 9 12 C8.67 12.99 8.34 13.98 8 15 C7.01 15 6.02 15 5 15 C4.7525 15.61875 4.505 16.2375 4.25 16.875 C2.17286013 20.40613778 -0.89038269 20.96649303 -4.71875 22.13671875 C-11.17934175 23.48355651 -17.72873654 23.12175447 -24.28369141 22.88842773 C-26.49501955 22.81267062 -28.70586113 22.76364901 -30.91796875 22.71679688 C-48.20398333 22.24050204 -48.20398333 22.24050204 -54.5625 16.8125 C-55.036875 16.214375 -55.51125 15.61625 -56 15 C-54.02 14.67 -52.04 14.34 -50 14 C-50 15.65 -50 17.3 -50 19 C-42.41 19.33 -34.82 19.66 -27 20 C-27 19.34 -27 18.68 -27 18 C-26.37351562 17.87882812 -25.74703125 17.75765625 -25.1015625 17.6328125 C-24.28429687 17.46523437 -23.46703125 17.29765625 -22.625 17.125 C-21.40683594 16.88136719 -21.40683594 16.88136719 -20.1640625 16.6328125 C-17.81326077 16.13341068 -17.81326077 16.13341068 -16 14 C-14.12060547 13.58935547 -14.12060547 13.58935547 -11.8671875 13.3671875 C-11.06152344 13.28339844 -10.25585938 13.19960937 -9.42578125 13.11328125 C-8.58402344 13.03464844 -7.74226563 12.95601562 -6.875 12.875 C-6.02550781 12.78863281 -5.17601562 12.70226562 -4.30078125 12.61328125 C-2.20130273 12.40097443 -0.10073758 12.19946397 2 12 C2 11.34 2 10.68 2 10 C1.34 10 0.68 10 0 10 C-2.125 5.375 -2.125 5.375 -1 2 C-0.67 1.34 -0.34 0.68 0 0 Z " fill="#CA7A57" transform="translate(114,180)"/>
<path d="M0 0 C0.66 0 1.32 0 2 0 C2.08142927 1.7492214 2.13938541 3.49954542 2.1875 5.25 C2.23970703 6.71179688 2.23970703 6.71179688 2.29296875 8.203125 C1.95210353 11.45725166 0.93141544 12.4463502 -1 15 C-1.42830242 17.8067172 -1.42830242 17.8067172 -1.4375 20.8125 C-1.95638016 29.03475478 -5.22257316 33.21289181 -10.60546875 39.22265625 C-12.74076579 41.94411326 -13.81172545 44.76525262 -15 48 C-15.66 48 -16.32 48 -17 48 C-17.46081659 41.75337509 -17.15232938 37.59445028 -13.98828125 32.1796875 C-12.777204 29.50861594 -12.59633727 27.16406266 -12.3125 24.25 C-11.42087219 17.66695354 -8.3223109 13.77272356 -4.09375 8.7890625 C-1.92649419 5.90208367 -0.93969568 3.46257431 0 0 Z " fill="#DEA375" transform="translate(153,151)"/>
<path d="M0 0 C1.0209375 0.495 1.0209375 0.495 2.0625 1 C2.84166092 6.02125926 3.19266601 9.97703996 2.0625 15 C1.0725 15 0.0825 15 -0.9375 15 C-0.9375 15.99 -0.9375 16.98 -0.9375 18 C-4.8975 18 -8.8575 18 -12.9375 18 C-14.42342234 12.31853222 -15.5631342 7.80583644 -13.9375 2 C-10.25512369 -2.3905256 -5.04494288 -1.71742736 0 0 Z " fill="#D0A07B" transform="translate(151.9375,118)"/>
<path d="M0 0 C8.25 0 16.5 0 25 0 C25 1.98 25 3.96 25 6 C34.57 6 44.14 6 54 6 C54 6.33 54 6.66 54 7 C32.88 7 11.76 7 -10 7 C-10 6.67 -10 6.34 -10 6 C-6.7 5.67 -3.4 5.34 0 5 C0 3.35 0 1.7 0 0 Z " fill="#F6DFCF" transform="translate(67,186)"/>
<path d="M0 0 C0.66 0.99 1.32 1.98 2 3 C1.67 3.33 1.34 3.66 1 4 C0.83333333 7 0.83333333 7 1 10 C1.33 10.33 1.66 10.66 2 11 C3.79034653 17.29073816 4.18798478 22.58488218 3 29 C4.65 29.33 6.3 29.66 8 30 C8 31.33333333 8 32.66666667 8 34 C1.4 34 -5.2 34 -12 34 C-11.23845645 29.43073869 -10.60598993 26.67631382 -8.8125 22.625 C-6.62543734 17.54743346 -4.61437066 12.43015603 -2.6875 7.25 C-2.42106689 6.53408691 -2.15463379 5.81817383 -1.88012695 5.08056641 C-1.25164877 3.38770004 -0.62555695 1.69394802 0 0 Z M-3 20 C-5.8990762 24.21683811 -6.91343356 28.06866002 -8 33 C-3.71 33 0.58 33 5 33 C3.576875 30.6178125 3.576875 30.6178125 2.125 28.1875 C1.59132812 27.29417969 1.05765625 26.40085938 0.5078125 25.48046875 C-0.61883092 23.62705276 -1.79686611 21.80470083 -3 20 Z " fill="#D5BA99" transform="translate(184,152)"/>
<path d="M0 0 C0.91007812 0.00902344 1.82015625 0.01804687 2.7578125 0.02734375 C3.80582031 0.04474609 3.80582031 0.04474609 4.875 0.0625 C4.875 0.3925 4.875 0.7225 4.875 1.0625 C4.27171875 1.08828125 3.6684375 1.1140625 3.046875 1.140625 C-2.17272187 1.44378215 -2.17272187 1.44378215 -6.5625 4.0625 C-7.078125 4.7225 -7.59375 5.3825 -8.125 6.0625 C-9.115 6.5575 -9.115 6.5575 -10.125 7.0625 C-11.65002093 10.30316948 -12.92780864 13.46085657 -14.04296875 16.86328125 C-15.21350265 20.32417389 -16.55620487 23.68033146 -17.9375 27.0625 C-20.49311282 33.362511 -22.82340759 39.71089794 -25.046875 46.13671875 C-26.125 49.0625 -26.125 49.0625 -28.125 53.0625 C-22.515 53.0625 -16.905 53.0625 -11.125 53.0625 C-11.125 53.3925 -11.125 53.7225 -11.125 54.0625 C-17.395 54.0625 -23.665 54.0625 -30.125 54.0625 C-29.00946727 45.13823813 -29.00946727 45.13823813 -27.25 41.6875 C-25.77715014 38.59398739 -24.62113403 35.6095619 -23.6875 32.3125 C-21.70791079 25.37306089 -19.34108421 18.28289245 -15.98046875 11.8828125 C-14.75151623 9.26778111 -14.9957237 6.90657857 -15.125 4.0625 C-12.485 4.0625 -9.845 4.0625 -7.125 4.0625 C-7.125 3.0725 -7.125 2.0825 -7.125 1.0625 C-4.60024538 -0.19987731 -2.81299534 -0.03606404 0 0 Z " fill="#6E6770" transform="translate(100.125,113.9375)"/>
<path d="M0 0 C0.72680969 0.0028299 1.45361938 0.00565979 2.20245361 0.00857544 C4.51534751 0.01973727 6.82784888 0.04483399 9.140625 0.0703125 C10.71223398 0.08034749 12.28384904 0.08947244 13.85546875 0.09765625 C17.70067122 0.11966346 21.54558164 0.15416535 25.390625 0.1953125 C22.25259422 4.90235866 17.75363327 5.87899698 12.390625 7.1953125 C5.6715002 7.77145993 -0.9835639 7.42802154 -7.609375 6.1953125 C-7.609375 5.2053125 -7.609375 4.2153125 -7.609375 3.1953125 C-8.929375 2.8653125 -10.249375 2.5353125 -11.609375 2.1953125 C-7.89562804 -0.21112891 -4.27088666 -0.06287391 0 0 Z " fill="#E09B6A" transform="translate(185.609375,186.8046875)"/>
<path d="M0 0 C1.32 0 2.64 0 4 0 C4.12375 1.175625 4.12375 1.175625 4.25 2.375 C4.72214303 5.13680512 4.72214303 5.13680512 7 6.25 C7.66 6.4975 8.32 6.745 9 7 C9.33 7.33 9.66 7.66 10 8 C12.04036985 8.07568137 14.0833305 8.08305372 16.125 8.0625 C17.38957031 8.05476563 18.65414062 8.04703125 19.95703125 8.0390625 C21.30469322 8.02664767 22.6523497 8.01362246 24 8 C32.08713315 7.92000857 39.98081078 7.87449976 48 9 C48 9.33 48 9.66 48 10 C46.43840941 10.48212214 44.87568072 10.96055873 43.3125 11.4375 C42.44238281 11.70433594 41.57226562 11.97117187 40.67578125 12.24609375 C35.23044701 13.78032661 29.93809071 14.329638 24.3125 14.6875 C23.54099609 14.74744141 22.76949219 14.80738281 21.97460938 14.86914062 C19.98663151 14.99588507 17.99200431 15.00624453 16 15 C15.34 14.34 14.68 13.68 14 13 C16.05078125 12.77213542 18.1015625 12.54427083 20.15234375 12.31640625 C22.01140229 12.18113386 22.01140229 12.18113386 23 11 C20.3753399 10.80569145 17.75053235 10.61926762 15.125 10.4375 C14.37863281 10.38142578 13.63226563 10.32535156 12.86328125 10.26757812 C8.80938458 9.86611075 8.80938458 9.86611075 5 11 C5.33 9.35 5.66 7.7 6 6 C4.741875 6.165 3.48375 6.33 2.1875 6.5 C-0.26456585 6.82158241 -2.51650694 7 -5 7 C-4.360625 6.21625 -3.72125 5.4325 -3.0625 4.625 C-1.01857687 2.20460719 -1.01857687 2.20460719 0 0 Z " fill="#9E6F55" transform="translate(144,95)"/>
<path d="M0 0 C0.495 1.485 0.495 1.485 1 3 C-0.75 4.125 -0.75 4.125 -3 5 C-3.57363281 4.69578125 -4.14726562 4.3915625 -4.73828125 4.078125 C-7.72195582 2.65585526 -10.14266416 2.66309059 -13.4375 2.625 C-14.54996094 2.59664062 -15.66242188 2.56828125 -16.80859375 2.5390625 C-20.62379177 3.09009477 -22.16842407 4.4730557 -25 7 C-25.66 7 -26.32 7 -27 7 C-27.28875 7.721875 -27.5775 8.44375 -27.875 9.1875 C-28.91666667 11.79166667 -29.95833333 14.39583333 -31 17 C-31.99 16.67 -32.98 16.34 -34 16 C-34.17913298 12.05907441 -34.21705627 9.3255844 -32 6 C-30.68671343 4.64691687 -29.35500919 3.31129922 -28 2 C-27.67 1.34 -27.34 0.68 -27 0 C-18.16635734 -2.94454755 -8.81401432 -3.10122726 0 0 Z " fill="#F9DFA2" transform="translate(218,146)"/>
<path d="M0 0 C2.77408955 2.77408955 3.68454864 6.09372141 5.00390625 9.7109375 C5.28725327 10.47548248 5.57060028 11.24002747 5.86253357 12.02774048 C6.46099866 13.64579174 7.05680162 15.26482976 7.65014648 16.88476562 C8.55710863 19.36028445 9.47214354 21.83269655 10.38867188 24.3046875 C10.96922792 25.87742783 11.54932135 27.45033902 12.12890625 29.0234375 C12.40182999 29.76210052 12.67475372 30.50076355 12.95594788 31.2618103 C15.45007245 38.08317247 15.45007245 38.08317247 16 41 C15.67 41.66 15.34 42.32 15 43 C14.34 43 13.68 43 13 43 C12.34644531 41.22109375 12.34644531 41.22109375 11.6796875 39.40625 C11.07815137 37.77082364 10.47658732 36.13540754 9.875 34.5 C9.44960937 33.34177734 9.44960937 33.34177734 9.015625 32.16015625 C6.04678029 24.09264345 3.01863841 16.04970244 0 8 C-0.33 20.54 -0.66 33.08 -1 46 C-1.33 46 -1.66 46 -2 46 C-2 31.15 -2 16.3 -2 1 C-1.34 0.67 -0.68 0.34 0 0 Z " fill="#645D65" transform="translate(92,121)"/>
<path d="M0 0 C13.53 0 27.06 0 41 0 C41 2.64 41 5.28 41 8 C35.06 8 29.12 8 23 8 C23 5.69 23 3.38 23 1 C15.41 1 7.82 1 0 1 C0 0.67 0 0.34 0 0 Z " fill="#E8B07D" transform="translate(70,176)"/>
<path d="M0 0 C1.94921875 0.71875 1.94921875 0.71875 4 2 C4.64453125 4.09375 4.64453125 4.09375 4.8125 6.5 C4.91498047 7.69109375 4.91498047 7.69109375 5.01953125 8.90625 C5 11 5 11 4 13 C3.34 12.34 2.68 11.68 2 11 C-1.08524939 10.82446581 -4.07964202 10.76877203 -7.1640625 10.8046875 C-8.07127045 10.8075174 -8.97847839 10.81034729 -9.91317749 10.81326294 C-12.81725123 10.82447847 -15.72101912 10.84958537 -18.625 10.875 C-20.59114139 10.88502803 -22.5572876 10.89415419 -24.5234375 10.90234375 C-29.34907659 10.92442228 -34.1744864 10.95896135 -39 11 C-39.33 13.31 -39.66 15.62 -40 18 C-37.69 18 -35.38 18 -33 18 C-33 18.33 -33 18.66 -33 19 C-33.95712891 19.07347656 -33.95712891 19.07347656 -34.93359375 19.1484375 C-35.75988281 19.22320312 -36.58617188 19.29796875 -37.4375 19.375 C-38.26121094 19.44460937 -39.08492187 19.51421875 -39.93359375 19.5859375 C-40.61550781 19.72257812 -41.29742187 19.85921875 -42 20 C-42.33 20.66 -42.66 21.32 -43 22 C-43.66 22 -44.32 22 -45 22 C-45.2475 22.639375 -45.495 23.27875 -45.75 23.9375 C-47 26 -47 26 -49.0625 26.625 C-49.701875 26.74875 -50.34125 26.8725 -51 27 C-51.33 27.66 -51.66 28.32 -52 29 C-52.33 27.68 -52.66 26.36 -53 25 C-51.68 25 -50.36 25 -49 25 C-48.44521185 22.79640221 -47.90444211 20.59159655 -47.38671875 18.37890625 C-46.0670712 13.06345438 -44.9880719 8.9880719 -41 5 C-41 6.32 -41 7.64 -41 9 C-27.14 8.67 -13.28 8.34 1 8 C0.505 4.04 0.505 4.04 0 0 Z M-42 13 C-42.99 14.485 -42.99 14.485 -44 16 C-43.67 16.99 -43.34 17.98 -43 19 C-42.34 18.34 -41.68 17.68 -41 17 C-41.3185177 14.89179203 -41.3185177 14.89179203 -42 13 Z " fill="#88727F" transform="translate(109,166)"/>
<path d="M0 0 C-0.33 0.66 -0.66 1.32 -1 2 C-8.56510178 3.35226194 -16.34145431 3.55618087 -24 4.0625 C-25.36069115 4.1540881 -26.72136838 4.24588328 -28.08203125 4.33789062 C-31.38788998 4.56062579 -34.69387436 4.78126846 -38 5 C-38 5.99 -38 6.98 -38 8 C-38.66 8 -39.32 8 -40 8 C-40 8.99 -40 9.98 -40 11 C-45.41538462 12.23076923 -45.41538462 12.23076923 -48.375 11.0625 C-48.91125 10.711875 -49.4475 10.36125 -50 10 C-49.25 3.25 -49.25 3.25 -47 1 C-43.5 0.75 -43.5 0.75 -40 1 C-39.34 1.66 -38.68 2.32 -38 3 C-34.78342705 2.99494955 -34.78342705 2.99494955 -31.015625 2.5390625 C-30.3224115 2.46964447 -29.629198 2.40022644 -28.91497803 2.32870483 C-26.69213525 2.10432253 -24.4711753 1.86528292 -22.25 1.625 C-20.04291872 1.39455333 -17.83556426 1.16720212 -15.62786865 0.94271851 C-13.61362191 0.73659099 -11.60023898 0.52207374 -9.58691406 0.30712891 C-6.3669215 0.03141759 -3.22915327 -0.05795277 0 0 Z " fill="#9A6E4C" transform="translate(133,107)"/>
<path d="M0 0 C0.44730469 0.40992188 0.89460938 0.81984375 1.35546875 1.2421875 C7.30589148 6.54554933 11.44452922 8.40192392 19.484375 8.26953125 C23.12807846 7.87913445 25.76446806 6.68810362 29 5 C30.02104551 5.97850195 31.0206121 6.97980427 32 8 C32 8.33 32 8.66 32 9 C36.95 9.33 41.9 9.66 47 10 C47 10.33 47 10.66 47 11 C25.55 11 4.1 11 -18 11 C-18 10.34 -18 9.68 -18 9 C-11.07 9 -4.14 9 3 9 C3 8.01 3 7.02 3 6 C1.68 5.67 0.36 5.34 -1 5 C-0.67 3.35 -0.34 1.7 0 0 Z " fill="#F3C18D" transform="translate(188,176)"/>
<path d="M0 0 C3.53508103 0.29459009 4.76203444 0.74881413 7.25 3.375 C10.15726814 7.7359022 10.10966572 11.04643706 10.0625 16.1875 C10.05347656 17.45980469 10.04445312 18.73210937 10.03515625 20.04296875 C10.02355469 21.01878906 10.01195312 21.99460938 10 23 C9.01 23.33 8.02 23.66 7 24 C7 25.32 7 26.64 7 28 C6.01 28 5.02 28 4 28 C4.33 28.99 4.66 29.98 5 31 C3.02 31 1.04 31 -1 31 C-0.65066406 30.45730469 -0.30132812 29.91460937 0.05859375 29.35546875 C0.51363281 28.64003906 0.96867188 27.92460937 1.4375 27.1875 C1.88996094 26.47980469 2.34242188 25.77210938 2.80859375 25.04296875 C5.19122375 20.95734419 5.44369921 17.65884169 5 13 C3.83531675 10.31634175 2.5209322 7.78744538 1.09375 5.234375 C0 3 0 3 0 0 Z " fill="#E1C58E" transform="translate(218,150)"/>
<path d="M0 0 C5.072007 -0.04942365 10.14387394 -0.08573068 15.21606445 -0.10986328 C16.94167523 -0.11992326 18.66726895 -0.13357276 20.39282227 -0.15087891 C22.8726014 -0.17512754 25.35215523 -0.18648301 27.83203125 -0.1953125 C28.60400345 -0.20563507 29.37597565 -0.21595764 30.17134094 -0.22659302 C33.99281476 -0.22739422 35.74136107 -0.17242595 39 2 C34.6343061 4.16598375 30.62673824 4.26188911 25.85546875 4.1953125 C25.08568192 4.1924826 24.31589508 4.18965271 23.52278137 4.18673706 C21.07752575 4.17559157 18.63264388 4.15049781 16.1875 4.125 C14.52409385 4.1149629 12.86068193 4.10583833 11.19726562 4.09765625 C7.13136763 4.07567073 3.06574706 4.04118014 -1 4 C-0.67 2.68 -0.34 1.36 0 0 Z " fill="#F3D3A1" transform="translate(121,225)"/>
<path d="M0 0 C2.64 0 5.28 0 8 0 C8.57251908 13.1043257 8.57251908 13.1043257 5 18 C4.01 18.33 3.02 18.66 2 19 C2 19.66 2 20.32 2 21 C1.01 21 0.02 21 -1 21 C-0.67 14.07 -0.34 7.14 0 0 Z " fill="#E7AA74" transform="translate(142,138)"/>
<path d="M0 0 C2 2 2 2 2.39453125 5.28125 C1.91836614 9.76945974 0.71188128 11.21996927 -2.3125 14.5 C-5.88898657 18.57696975 -8.29040944 21.87122833 -10 27 C-10.66 27 -11.32 27 -12 27 C-12.46043459 20.75855339 -12.1620331 16.4145256 -9.0234375 10.9609375 C-7.36299597 7.77948084 -6.74909682 4.49578515 -6 1 C-5.67 1 -5.34 1 -5 1 C-4.67 3.64 -4.34 6.28 -4 9 C-3.01 9 -2.02 9 -1 9 C-1.20625 8.071875 -1.4125 7.14375 -1.625 6.1875 C-2 3 -2 3 0 0 Z " fill="#E2A06D" transform="translate(148,172)"/>
<path d="M0 0 C6.27 0 12.54 0 19 0 C19 0.66 19 1.32 19 2 C19.99 2.33 20.98 2.66 22 3 C22 3.99 22 4.98 22 6 C13.42 6.33 4.84 6.66 -4 7 C-3.67 6.01 -3.34 5.02 -3 4 C-2.01 4 -1.02 4 0 4 C0 2.68 0 1.36 0 0 Z " fill="#F6CF9E" transform="translate(137,213)"/>
<path d="M0 0 C3.47188326 3.00896549 5.19430483 5.43439405 6 10 C5.27194876 12.56625153 4.24226715 14.61102471 3 17 C1.8422494 13.52674819 1.93133348 10.63932552 2 7 C1.61328125 7.67546875 1.2265625 8.3509375 0.828125 9.046875 C0.30734375 9.93890625 -0.2134375 10.8309375 -0.75 11.75 C-1.26046875 12.63171875 -1.7709375 13.5134375 -2.296875 14.421875 C-4 17 -4 17 -6.15625 18.84375 C-8.76785518 21.89800012 -8.67000643 24.90303639 -8.75 28.75 C-8.77964844 29.44738281 -8.80929688 30.14476562 -8.83984375 30.86328125 C-8.91018458 32.57490813 -8.95739946 34.28745815 -9 36 C-9.99 35.67 -10.98 35.34 -12 35 C-11.773125 34.443125 -11.54625 33.88625 -11.3125 33.3125 C-11.209375 32.549375 -11.10625 31.78625 -11 31 C-11.5775 30.29875 -12.155 29.5975 -12.75 28.875 C-14 26 -14 26 -13.3359375 23.73828125 C-10.77490891 18.34359844 -7.57573046 14.28583245 -3.515625 9.9609375 C-1.09608031 6.83049565 -0.62119607 3.86522001 0 0 Z " fill="#C07055" transform="translate(151,173)"/>
<path d="M0 0 C0.83265381 0.00523682 1.66530762 0.01047363 2.52319336 0.01586914 C3.42231445 0.0190918 4.32143555 0.02231445 5.24780273 0.02563477 C6.66609375 0.03820312 6.66609375 0.03820312 8.11303711 0.05102539 C9.06243164 0.05553711 10.01182617 0.06004883 10.98999023 0.06469727 C13.34356776 0.07652429 15.69702188 0.09300514 18.05053711 0.11352539 C18.05053711 2.09352539 18.05053711 4.07352539 18.05053711 6.11352539 C11.45053711 6.11352539 4.85053711 6.11352539 -1.94946289 6.11352539 C-2.27946289 4.46352539 -2.60946289 2.81352539 -2.94946289 1.11352539 C-1.94946289 0.11352539 -1.94946289 0.11352539 0 0 Z " fill="#F8E3D7" transform="translate(69.949462890625,168.886474609375)"/>
<path d="M0 0 C2 2 2 2 2 7 C-16.15 7 -34.3 7 -53 7 C-52.67 5.35 -52.34 3.7 -52 2 C-51.34 1.67 -50.68 1.34 -50 1 C-50.33 2.65 -50.66 4.3 -51 6 C-46.52063524 5.85989315 -42.04156447 5.71187647 -37.5625 5.5625 C-36.30244141 5.52318359 -35.04238281 5.48386719 -33.74414062 5.44335938 C-27.77708264 5.24082216 -21.89337516 4.94721849 -15.96899414 4.20727539 C-12.79044746 3.87267079 -9.63025303 3.9065024 -6.4375 3.9375 C-4.61025391 3.95103516 -4.61025391 3.95103516 -2.74609375 3.96484375 C-1.83988281 3.97644531 -0.93367188 3.98804688 0 4 C0 2.68 0 1.36 0 0 Z " fill="#B67456" transform="translate(171,225)"/>
<path d="M0 0 C0.33 0.66 0.66 1.32 1 2 C3.64 2 6.28 2 9 2 C9 4 9 6 9 8 C28.305 8.495 28.305 8.495 48 9 C48 9.66 48 10.32 48 11 C43.56251426 11.02939331 39.12505407 11.04692963 34.6875 11.0625 C32.82254883 11.07506836 32.82254883 11.07506836 30.91992188 11.08789062 C9.01636886 11.14538027 9.01636886 11.14538027 3.3125 5.9375 C2.48363281 5.20402344 1.65476563 4.47054687 0.80078125 3.71484375 C0.20652344 3.14894531 -0.38773438 2.58304688 -1 2 C-0.67 1.34 -0.34 0.68 0 0 Z " fill="#C29493" transform="translate(169,185)"/>
<path d="M0 0 C1.48831242 0.00667405 2.97660807 0.01863442 4.46484375 0.03515625 C5.22345703 0.03966797 5.98207031 0.04417969 6.76367188 0.04882812 C8.64326246 0.06064945 10.52281274 0.07858547 12.40234375 0.09765625 C10.40234375 2.09765625 10.40234375 2.09765625 8.58984375 2.47265625 C6.21037254 2.96364127 6.21037254 2.96364127 4.34765625 5.12109375 C0.22582397 7.88720401 -3.07197251 7.54622417 -7.91015625 7.34765625 C-8.74611328 7.32960937 -9.58207031 7.3115625 -10.44335938 7.29296875 C-12.49528853 7.24606751 -14.54662381 7.17433036 -16.59765625 7.09765625 C-14.04322094 5.39469937 -11.77225865 4.23433448 -8.97265625 3.03515625 C-2.02247089 0.05489878 -2.02247089 0.05489878 0 0 Z " fill="#D08055" transform="translate(214.59765625,186.90234375)"/>
<path d="M0 0 C1.65 0 3.3 0 5 0 C3.6178686 3.75149952 2.71673111 6.14163444 -1 8 C-3.33294775 8.04241723 -5.66702567 8.04092937 -8 8 C-8.99 8 -9.98 8 -11 8 C-10.34 7.01 -9.68 6.02 -9 5 C-12.17787541 3.9407082 -14.42588943 3.88541061 -17.76171875 3.90234375 C-19.43911133 3.90717773 -19.43911133 3.90717773 -21.15039062 3.91210938 C-22.31763672 3.92048828 -23.48488281 3.92886719 -24.6875 3.9375 C-25.86634766 3.94201172 -27.04519531 3.94652344 -28.25976562 3.95117188 C-31.17322789 3.96296727 -34.08658863 3.9794273 -37 4 C-33.78345298 2.11375329 -31.28567739 1.70952258 -27.578125 1.5859375 C-26.04091797 1.52792969 -26.04091797 1.52792969 -24.47265625 1.46875 C-22.87744141 1.42234375 -22.87744141 1.42234375 -21.25 1.375 C-20.17105469 1.33632812 -19.09210938 1.29765625 -17.98046875 1.2578125 C-15.32048225 1.16365369 -12.6605006 1.07802613 -10 1 C-10 1.66 -10 2.32 -10 3 C-6.7 2.67 -3.4 2.34 0 2 C0 1.34 0 0.68 0 0 Z " fill="#996B50" transform="translate(150,110)"/>
<path d="M0 0 C1.12792969 -0.01417969 2.25585938 -0.02835938 3.41796875 -0.04296875 C6.92819014 0.19535468 9.59064496 0.78405808 12.8125 2.1875 C13.8025 3.6725 13.8025 3.6725 14.8125 5.1875 C15.34875 5.97125 15.885 6.755 16.4375 7.5625 C18.48752001 12.96709821 18.4212901 18.46329181 17.8125 24.1875 C17.1525 24.8475 16.4925 25.5075 15.8125 26.1875 C15.87050781 25.48625 15.92851562 24.785 15.98828125 24.0625 C16.32128357 17.059937 15.54928125 12.49843655 10.8125 7.1875 C7.04267182 4.11211386 3.58050757 3.71727862 -1.1875 3.1875 C-3.1875 2.52083333 -5.1875 1.85416667 -7.1875 1.1875 C-5.34735568 -0.65264432 -2.4676214 0.01394136 0 0 Z M13.8125 1.1875 C16.2875 1.6825 16.2875 1.6825 18.8125 2.1875 C17.8225 2.6825 17.8225 2.6825 16.8125 3.1875 C15.8225 2.5275 14.8325 1.8675 13.8125 1.1875 Z " fill="#E6B06C" transform="translate(204.1875,147.8125)"/>
<path d="M0 0 C1.12070326 3.36210979 0.94914915 3.80043053 -0.328125 6.9140625 C-0.63363281 7.67589844 -0.93914062 8.43773437 -1.25390625 9.22265625 C-1.58261719 10.01542969 -1.91132813 10.80820313 -2.25 11.625 C-2.88244302 13.17877977 -3.51265527 14.73346943 -4.140625 16.2890625 C-4.45451172 17.06024414 -4.76839844 17.83142578 -5.09179688 18.62597656 C-6.28962782 21.7570809 -7.25399072 24.94529042 -8.18261719 28.16552734 C-9 30 -9 30 -12 32 C-13.50138439 28.12605755 -12.43091017 25.86104778 -10.875 22.125 C-8.86983578 17.17668158 -6.96366698 12.22105115 -5.1875 7.1875 C-4.76855469 6.00542969 -4.34960938 4.82335937 -3.91796875 3.60546875 C-3.61503906 2.74566406 -3.31210938 1.88585937 -3 1 C-2.34 1.33 -1.68 1.66 -1 2 C-0.67 1.34 -0.34 0.68 0 0 Z " fill="#67596E" transform="translate(198,121)"/>
<path d="M0 0 C0.66 0 1.32 0 2 0 C9.40727782 17.6759972 9.40727782 17.6759972 12 26 C12.391875 27.175625 12.78375 28.35125 13.1875 29.5625 C13.455625 30.366875 13.72375 31.17125 14 32 C13.01 31.67 12.02 31.34 11 31 C11 30.34 11 29.68 11 29 C10.34 29 9.68 29 9 29 C8.07056255 26.45572988 7.1443636 23.91036501 6.22265625 21.36328125 C5.36467365 19.0031438 4.4965984 16.64666256 3.62109375 14.29296875 C3.16863281 13.06191406 2.71617187 11.83085937 2.25 10.5625 C1.82203125 9.40878906 1.3940625 8.25507812 0.953125 7.06640625 C0 4 0 4 0 0 Z " fill="#847A86" transform="translate(207,117)"/>
<path d="M0 0 C0.33 0 0.66 0 1 0 C1.04898438 1.07121094 1.09796875 2.14242187 1.1484375 3.24609375 C1.22345294 4.64325639 1.2990013 6.0403905 1.375 7.4375 C1.4059375 8.14455078 1.436875 8.85160156 1.46875 9.58007812 C1.57280629 11.39239188 1.77919892 13.19817988 2 15 C2.66 15.33 3.32 15.66 4 16 C4.33 17.32 4.66 18.64 5 20 C-0.94 20 -6.88 20 -13 20 C-12.34 18.68 -11.68 17.36 -11 16 C-8.36 16 -5.72 16 -3 16 C-3.66 14.68 -4.32 13.36 -5 12 C-3.68 11.67 -2.36 11.34 -1 11 C-0.67 7.37 -0.34 3.74 0 0 Z " fill="#D59C78" transform="translate(150,193)"/>
<path d="M0 0 C2.64 0 5.28 0 8 0 C8.87890625 6.15234375 8.87890625 6.15234375 9 8 C8 9 8 9 6.15234375 9.09765625 C4.1015625 9.06510417 2.05078125 9.03255208 0 9 C-0.33 8.34 -0.66 7.68 -1 7 C-3.52733235 6.34444881 -3.52733235 6.34444881 -6 6 C-5.34 5.34 -4.68 4.68 -4 4 C-3.01 4 -2.02 4 -1 4 C-0.67 2.68 -0.34 1.36 0 0 Z " fill="#EFBA87" transform="translate(199,98)"/>
<path d="M0 0 C2.96527758 2.4453385 3.55582214 4.44602347 4.1875 8.1875 C4.34605469 9.08855469 4.50460938 9.98960937 4.66796875 10.91796875 C4.77753906 11.60503906 4.88710937 12.29210937 5 13 C5.99 13 6.98 13 8 13 C7.67 13.99 7.34 14.98 7 16 C7 15.34 7 14.68 7 14 C5.42798828 14.08701172 5.42798828 14.08701172 3.82421875 14.17578125 C2.445357 14.22268131 1.06644713 14.26818122 -0.3125 14.3125 C-1.34793945 14.3753418 -1.34793945 14.3753418 -2.40429688 14.43945312 C-4.42578125 14.48828125 -4.42578125 14.48828125 -8 14 C-9.98046875 11.48046875 -9.98046875 11.48046875 -11 9 C-9.35 8.67 -7.7 8.34 -6 8 C-6 7.34 -6 6.68 -6 6 C-5.01 6 -4.02 6 -3 6 C-3 4.68 -3 3.36 -3 2 C-2.01 1.34 -1.02 0.68 0 0 Z M-2 5 C-3.65 7.64 -5.3 10.28 -7 13 C-4.03 13 -1.06 13 2 13 C1.40138258 10.64828869 0.73075648 8.3140622 0 6 C-0.66 5.67 -1.32 5.34 -2 5 Z " fill="#BDA8A4" transform="translate(228,172)"/>
<path d="M0 0 C0.99 0.33 1.98 0.66 3 1 C1.75419163 7.09927013 -0.0188927 11.38605179 -4.125 16.125 C-7.92829939 20.52735388 -9 23.21301196 -9 29 C-9.99 29 -10.98 29 -12 29 C-13.29726446 25.10820663 -12.56913218 23.7540575 -11 20 C-9.17765703 17.22908672 -7.2737244 14.58712864 -5.27734375 11.94335938 C-2.40552326 7.99579095 -1.08821489 4.6781412 0 0 Z " fill="#A8655C" transform="translate(151,148)"/>
<path d="M0 0 C0.33 0.99 0.66 1.98 1 3 C0.01 3.66 -0.98 4.32 -2 5 C7.24 5 16.48 5 26 5 C26 5.66 26 6.32 26 7 C25.23333008 6.97905273 24.46666016 6.95810547 23.67675781 6.93652344 C20.2013054 6.85334842 16.72606237 6.80133425 13.25 6.75 C12.0434375 6.71648437 10.836875 6.68296875 9.59375 6.6484375 C8.43359375 6.63554687 7.2734375 6.62265625 6.078125 6.609375 C4.47565918 6.5779541 4.47565918 6.5779541 2.84082031 6.54589844 C-0.68268957 7.10912707 -1.64245377 8.42526151 -4 11 C-7.25 11.25 -7.25 11.25 -10 11 C-9.875 8.75 -9.875 8.75 -9 6 C-4.02702703 2 -4.02702703 2 0 2 C0 1.34 0 0.68 0 0 Z " fill="#E7A875" transform="translate(136,214)"/>
<path d="M0 0 C0.66 1.32 1.32 2.64 2 4 C1.01 4.33 0.02 4.66 -1 5 C-1 6.32 -1 7.64 -1 9 C-3.97 8.67 -6.94 8.34 -10 8 C-10.1875 5.125 -10.1875 5.125 -10 2 C-6.3558226 -0.4294516 -4.28758728 -0.16179575 0 0 Z " fill="#F9CF9F" transform="translate(149,117)"/>
<path d="M0 0 C0.66 0.33 1.32 0.66 2 1 C3.66848725 6.00546176 3.59470227 10.25027954 1.4375 15.0625 C-1.35857449 20.19529389 -5.429333 24.143111 -11 26 C-12.72795352 26.06802967 -14.45835365 26.08495645 -16.1875 26.0625 C-17.53908203 26.04896484 -17.53908203 26.04896484 -18.91796875 26.03515625 C-19.60503906 26.02355469 -20.29210937 26.01195312 -21 26 C-18.58323026 23.07776208 -16.8350171 22.58734256 -13.125 22.125 C-8.30342628 21.28982202 -6.12806233 19.88638048 -3 16 C-2.46632812 15.59007812 -1.93265625 15.18015625 -1.3828125 14.7578125 C0.74459511 12.05348079 0.28759796 9.6824648 0.1875 6.3125 C0.16042969 5.13300781 0.13335937 3.95351562 0.10546875 2.73828125 C0.05326172 1.38283203 0.05326172 1.38283203 0 0 Z " fill="#F0A35C" transform="translate(221,159)"/>
<path d="M0 0 C0 0.66 0 1.32 0 2 C-4.47058824 6 -4.47058824 6 -7 6 C-7.433125 7.0828125 -7.433125 7.0828125 -7.875 8.1875 C-8.91666667 10.79166667 -9.95833333 13.39583333 -11 16 C-11.99 15.67 -12.98 15.34 -14 15 C-14.24690663 9.56805415 -13.64574597 6.92003697 -10.125 2.8125 C-6.70569533 -0.10396575 -4.46741009 0 0 0 Z " fill="#F9E9AF" transform="translate(198,147)"/>
<path d="M0 0 C0.99 0.33 1.98 0.66 3 1 C3.66 4.96 4.32 8.92 5 13 C0.05 12.67 -4.9 12.34 -10 12 C-10 11.67 -10 11.34 -10 11 C-6.7 10.67 -3.4 10.34 0 10 C0 9.34 0 8.68 0 8 C-3.63 8.66 -7.26 9.32 -11 10 C-11 9.01 -11 8.02 -11 7 C-12.65 7 -14.3 7 -16 7 C-16 6.67 -16 6.34 -16 6 C-10.39 6 -4.78 6 1 6 C0.67 4.02 0.34 2.04 0 0 Z " fill="#6E70B2" transform="translate(106,161)"/>
<path d="M0 0 C4.62 0 9.24 0 14 0 C14 0.99 14 1.98 14 3 C13.01 3 12.02 3 11 3 C11 3.99 11 4.98 11 6 C7.04 6 3.08 6 -1 6 C-0.67 4.02 -0.34 2.04 0 0 Z " fill="#E5B081" transform="translate(140,130)"/>
<path d="M0 0 C5 7.5 5 7.5 5 11 C6.32 11.33 7.64 11.66 9 12 C8.67 12.99 8.34 13.98 8 15 C7.01 15 6.02 15 5 15 C4.731875 15.639375 4.46375 16.27875 4.1875 16.9375 C3 19 3 19 0 20 C0 19.01 0 18.02 0 17 C0.99 17 1.98 17 3 17 C3 16.01 3 15.02 3 14 C0.69 14 -1.62 14 -4 14 C-4 13.67 -4 13.34 -4 13 C-2.02 12.67 -0.04 12.34 2 12 C2 11.34 2 10.68 2 10 C1.34 10 0.68 10 0 10 C-2.125 5.375 -2.125 5.375 -1 2 C-0.67 1.34 -0.34 0.68 0 0 Z " fill="#966F67" transform="translate(114,180)"/>
<path d="M0 0 C1.32 0 2.64 0 4 0 C4.33 1.65 4.66 3.3 5 5 C5.66 5 6.32 5 7 5 C7 5.66 7 6.32 7 7 C1.39 7 -4.22 7 -10 7 C-10 5.68 -10 4.36 -10 3 C-6.7 3 -3.4 3 0 3 C0 2.01 0 1.02 0 0 Z " fill="#646CB7" transform="translate(109,185)"/>
<path d="M0 0 C2 2 2 2 2.3125 5.3125 C1.97476251 9.29780244 1.15679857 10.72486143 -1 14 C-2.09674098 16.63810668 -3.04142791 19.30686888 -4 22 C-5.32 22 -6.64 22 -8 22 C-7.35408749 18.05195052 -6.14034269 14.67070821 -4.5625 11 C-3.00175368 7.34738771 -1.46002395 3.69420012 0 0 Z " fill="#72606F" transform="translate(180,163)"/>
<path d="M0 0 C0.99 0.66 1.98 1.32 3 2 C2.49396008 4.16874252 2.00016187 5.99967627 1 8 C-13.34700641 8.87999163 -27.62744208 9.12713885 -42 9 C-42 8.67 -42 8.34 -42 8 C-36.83279599 7.14324615 -31.89219378 6.86532419 -26.66015625 6.90234375 C-25.89319931 6.9037587 -25.12624237 6.90517365 -24.33604431 6.90663147 C-21.9114881 6.91218234 -19.48702781 6.92472537 -17.0625 6.9375 C-15.40820447 6.94252136 -13.75390747 6.94708315 -12.09960938 6.95117188 C-8.06636988 6.96213562 -4.03320114 6.97936576 0 7 C0 4.69 0 2.38 0 0 Z " fill="#AD8D9A" transform="translate(111,177)"/>
<path d="M0 0 C2.86688248 0.09096556 5.70300515 0.23767988 8.5625 0.4375 C9.36880859 0.48970703 10.17511719 0.54191406 11.00585938 0.59570312 C13.00421738 0.72577376 15.00215386 0.86229056 17 1 C15 4 15 4 11.875 4.6875 C10.92625 4.790625 9.9775 4.89375 9 5 C9 5.33 9 5.66 9 6 C6.69 6 4.38 6 2 6 C1.67 6.99 1.34 7.98 1 9 C1 8.01 1 7.02 1 6 C0.34 6 -0.32 6 -1 6 C-1.042721 4.33388095 -1.04063832 2.66617115 -1 1 C-0.67 0.67 -0.34 0.34 0 0 Z " fill="#EBA16F" transform="translate(151,104)"/>
<path d="M0 0 C0.66 0 1.32 0 2 0 C1.59029813 7.2380663 -0.82609951 12.4894349 -4 19 C1.61 19 7.22 19 13 19 C13 19.33 13 19.66 13 20 C6.73 20 0.46 20 -6 20 C-5.24802821 13.98422572 -4.75040217 10.71885619 -2.4375 5.5 C-1.98246094 4.4584375 -1.52742188 3.416875 -1.05859375 2.34375 C-0.70925781 1.5703125 -0.35992187 0.796875 0 0 Z " fill="#69647C" transform="translate(76,148)"/>
<path d="M0 0 C0.99 0 1.98 0 3 0 C3 2.31 3 4.62 3 7 C-1.29 7 -5.58 7 -10 7 C-9.67 5.35 -9.34 3.7 -9 2 C-6.94921875 1.77213542 -4.8984375 1.54427083 -2.84765625 1.31640625 C-0.98859771 1.18113386 -0.98859771 1.18113386 0 0 Z " fill="#FB9E52" transform="translate(108,177)"/>
<path d="M0 0 C1.04449911 3.13349732 0.93423645 3.98968256 0 7 C0.99 7 1.98 7 3 7 C3.33 6.01 3.66 5.02 4 4 C4.66 4 5.32 4 6 4 C6 5.65 6 7.3 6 9 C4.35 9.33 2.7 9.66 1 10 C1.99 11.32 2.98 12.64 4 14 C3 15 3 15 -0.0625 15.0625 C-1.031875 15.041875 -2.00125 15.02125 -3 15 C-2.88658363 12.68690295 -2.75896193 10.37449815 -2.625 8.0625 C-2.55539063 6.77472656 -2.48578125 5.48695313 -2.4140625 4.16015625 C-2.27742187 3.11730469 -2.14078125 2.07445312 -2 1 C-1.34 0.67 -0.68 0.34 0 0 Z " fill="#D9905F" transform="translate(144,195)"/>
<path d="M0 0 C2.52282786 3.78424179 4.02402293 7.72046895 5.6875 11.9375 C6.02072266 12.74896484 6.35394531 13.56042969 6.69726562 14.39648438 C7.00728516 15.18216797 7.31730469 15.96785156 7.63671875 16.77734375 C7.92248779 17.49140381 8.20825684 18.20546387 8.50268555 18.94116211 C9.07696777 21.31863975 8.77289597 22.70710752 8 25 C7.34 25 6.68 25 6 25 C4.78894378 21.96719551 3.61054639 18.92268623 2.4375 15.875 C2.09525391 15.0190625 1.75300781 14.163125 1.40039062 13.28125 C-0.43336433 8.4653279 -1.54136399 5.13787998 0 0 Z " fill="#5C5360" transform="translate(99,139)"/>
<path d="M0 0 C0.48210937 0.42152344 0.96421875 0.84304687 1.4609375 1.27734375 C2.40839844 2.09912109 2.40839844 2.09912109 3.375 2.9375 C4.00148437 3.48277344 4.62796875 4.02804688 5.2734375 4.58984375 C6.95632334 6.06958624 6.95632334 6.06958624 9 7 C9 8.32 9 9.64 9 11 C0.09 11 -8.82 11 -18 11 C-18 10.34 -18 9.68 -18 9 C-11.07 9 -4.14 9 3 9 C3 8.01 3 7.02 3 6 C1.68 5.67 0.36 5.34 -1 5 C-0.67 3.35 -0.34 1.7 0 0 Z " fill="#F9D8A3" transform="translate(188,176)"/>
<path d="M0 0 C0.99 0 1.98 0 3 0 C3 3.63 3 7.26 3 11 C5.64 11 8.28 11 11 11 C11 11.99 11 12.98 11 14 C7.37 14 3.74 14 0 14 C0 9.38 0 4.76 0 0 Z " fill="#FBD89F" transform="translate(203,156)"/>
<path d="M0 0 C0.33 0 0.66 0 1 0 C1.02505615 0.83249268 1.0501123 1.66498535 1.07592773 2.52270508 C1.17112694 5.61462833 1.27035672 8.70638852 1.37231445 11.7980957 C1.43687006 13.79303319 1.4967783 15.78811929 1.55664062 17.78320312 C1.61948242 19.66362305 1.61948242 19.66362305 1.68359375 21.58203125 C1.72025146 22.73936768 1.75690918 23.8967041 1.79467773 25.08911133 C1.88328509 28.0643446 1.88328509 28.0643446 3 31 C6.3 31.66 9.6 32.32 13 33 C13 33.33 13 33.66 13 34 C11.91460937 33.98839844 10.82921875 33.97679687 9.7109375 33.96484375 C8.26562673 33.95545862 6.82031409 33.94635919 5.375 33.9375 C4.66214844 33.92912109 3.94929687 33.92074219 3.21484375 33.91210938 C-0.97344438 33.89289704 -4.8728462 34.1732673 -9 35 C-6.23776722 32.23776722 -3.79293383 32.42143709 0 32 C-0.05329468 30.65252686 -0.05329468 30.65252686 -0.10766602 29.27783203 C-0.23677242 25.94951643 -0.36110273 22.62109412 -0.48217773 19.29248047 C-0.5355959 17.85100177 -0.59092518 16.40959259 -0.64819336 14.96826172 C-0.73010997 12.89826447 -0.80518359 10.82811573 -0.87890625 8.7578125 C-0.9260376 7.5114502 -0.97316895 6.26508789 -1.02172852 4.98095703 C-1 2 -1 2 0 0 Z " fill="#554652" transform="translate(202,111)"/>
<path d="M0 0 C0.66 0.99 1.32 1.98 2 3 C1.67 3.33 1.34 3.66 1 4 C0.83333333 7 0.83333333 7 1 10 C1.33 10.33 1.66 10.66 2 11 C2.07205511 12.68608966 2.08386068 14.37500659 2.0625 16.0625 C2.05347656 16.98160156 2.04445312 17.90070313 2.03515625 18.84765625 C2.02355469 19.55792969 2.01195312 20.26820313 2 21 C0.68 20.67 -0.64 20.34 -2 20 C-3.70159453 6.3667426 -3.70159453 6.3667426 0 0 Z " fill="#DBCCA1" transform="translate(184,152)"/>
<path d="M0 0 C1.26328125 0.01804688 2.5265625 0.03609375 3.828125 0.0546875 C4.79234375 0.07789063 5.7565625 0.10109375 6.75 0.125 C6.255 0.599375 5.76 1.07375 5.25 1.5625 C3.63457803 2.88423698 3.63457803 2.88423698 3.75 4.125 C-0.07320557 5.54758812 -3.16281305 6.36542276 -7.25 6.125 C-7.25 5.135 -7.25 4.145 -7.25 3.125 C-8.57 2.795 -9.89 2.465 -11.25 2.125 C-7.54583874 -0.25090142 -4.32015427 -0.08000286 0 0 Z " fill="#EAA977" transform="translate(185.25,186.875)"/>
<path d="M0 0 C0 1.32 0 2.64 0 4 C20.295 4.495 20.295 4.495 41 5 C41 5.33 41 5.66 41 6 C35.5740282 6.09928585 30.14859159 6.17166467 24.72192383 6.21972656 C22.87808006 6.23977361 21.03429932 6.2670188 19.19067383 6.30175781 C16.5319051 6.35058208 13.87398085 6.37303772 11.21484375 6.390625 C10.39789536 6.41127014 9.58094696 6.43191528 8.73924255 6.45318604 C3.01866166 6.45540104 -0.30087783 5.30509663 -5 2 C-5.33 1.34 -5.66 0.68 -6 0 C-3 -1 -3 -1 0 0 Z " fill="#BF8275" transform="translate(64,195)"/>
<path d="M0 0 C0.66 0.33 1.32 0.66 2 1 C3.27368421 8.17894737 3.27368421 8.17894737 2 12 C-2.62 12 -7.24 12 -12 12 C-12 12.66 -12 13.32 -12 14 C-12.66 14 -13.32 14 -14 14 C-13.67 13.01 -13.34 12.02 -13 11 C-11.7625 10.938125 -10.525 10.87625 -9.25 10.8125 C-5.91025888 10.39281572 -5.15134744 10.13970533 -2.5625 7.75 C-1.03855454 5.067856 -0.3481833 3.0466039 0 0 Z " fill="#BA8761" transform="translate(152,118)"/>
<path d="M0 0 C6.27 0 12.54 0 19 0 C19 0.66 19 1.32 19 2 C19.66 2.33 20.32 2.66 21 3 C14.07 3 7.14 3 0 3 C0 2.01 0 1.02 0 0 Z " fill="#E4BE91" transform="translate(137,213)"/>
<path d="M0 0 C2.1640625 0.0234375 2.1640625 0.0234375 4.625 0.375 C5.44226563 0.48585937 6.25953125 0.59671875 7.1015625 0.7109375 C7.72804687 0.80632812 8.35453125 0.90171875 9 1 C6.19401835 3.80598165 4.38845919 3.98758959 0.4465332 4.11352539 C-1.01872699 4.1133674 -2.48399324 4.10773819 -3.94921875 4.09765625 C-4.72183548 4.0962413 -5.49445221 4.09482635 -6.29048157 4.09336853 C-8.75619389 4.08777466 -11.22181515 4.07522333 -13.6875 4.0625 C-15.36002473 4.05748421 -17.03255088 4.05292144 -18.70507812 4.04882812 C-22.80342046 4.03780724 -26.90169479 4.02054684 -31 4 C-31 3.67 -31 3.34 -31 3 C-29.69796631 2.970271 -29.69796631 2.970271 -28.36962891 2.93994141 C-25.15273733 2.86190128 -21.93622955 2.77521119 -18.71972656 2.68261719 C-17.32691428 2.64430673 -15.93400235 2.60945741 -14.54101562 2.578125 C-12.54013692 2.53252093 -10.53957854 2.47348377 -8.5390625 2.4140625 C-7.33459473 2.3826416 -6.13012695 2.3512207 -4.88916016 2.31884766 C-1.8739982 2.29084774 -1.8739982 2.29084774 0 0 Z " fill="#F5C48F" transform="translate(151,225)"/>
<path d="M0 0 C1 1 1 1 1.0625 4.0625 C1.041875 5.031875 1.02125 6.00125 1 7 C-1.33294775 7.04241723 -3.66702567 7.04092937 -6 7 C-7 6 -7 6 -7.0625 2.9375 C-7.041875 1.968125 -7.02125 0.99875 -7 0 C-4.31633121 -1.3418344 -2.84719317 -0.73004953 0 0 Z " fill="#FCE1B1" transform="translate(149,105)"/>
<path d="M0 0 C1.32 0 2.64 0 4 0 C4.12375 1.175625 4.12375 1.175625 4.25 2.375 C4.70995268 5.11631339 4.70995268 5.11631339 6.875 6.125 C7.57625 6.41375 8.2775 6.7025 9 7 C10.75 8.625 10.75 8.625 12 10 C11.21625 9.979375 10.4325 9.95875 9.625 9.9375 C7.01885039 9.81315937 7.01885039 9.81315937 5 11 C5.33 9.35 5.66 7.7 6 6 C4.741875 6.165 3.48375 6.33 2.1875 6.5 C-0.26456585 6.82158241 -2.51650694 7 -5 7 C-4.360625 6.21625 -3.72125 5.4325 -3.0625 4.625 C-1.01857687 2.20460719 -1.01857687 2.20460719 0 0 Z " fill="#9B6C51" transform="translate(144,95)"/>
<path d="M0 0 C1.32 0 2.64 0 4 0 C4 4.62 4 9.24 4 14 C2.68 14 1.36 14 0 14 C0 9.38 0 4.76 0 0 Z " fill="#FBD99E" transform="translate(197,156)"/>
<path d="M0 0 C1.94921875 0.71875 1.94921875 0.71875 4 2 C4.64453125 4.09375 4.64453125 4.09375 4.8125 6.5 C4.91498047 7.69109375 4.91498047 7.69109375 5.01953125 8.90625 C5 11 5 11 4 13 C3.34 12.34 2.68 11.68 2 11 C-0.42246595 10.62904292 -0.42246595 10.62904292 -3.2265625 10.5859375 C-4.7734375 10.52792969 -4.7734375 10.52792969 -6.3515625 10.46875 C-7.97191406 10.42234375 -7.97191406 10.42234375 -9.625 10.375 C-10.71296875 10.33632812 -11.8009375 10.29765625 -12.921875 10.2578125 C-15.61441165 10.16333753 -18.30693757 10.07777569 -21 10 C-21 9.67 -21 9.34 -21 9 C-13.74 8.67 -6.48 8.34 1 8 C0.67 5.36 0.34 2.72 0 0 Z " fill="#574D79" transform="translate(109,166)"/>
<path d="M0 0 C4.62 0 9.24 0 14 0 C14 1.32 14 2.64 14 4 C8.72 4 3.44 4 -2 4 C-1.01 3.34 -0.02 2.68 1 2 C0.67 1.34 0.34 0.68 0 0 Z " fill="#E5A573" transform="translate(157,225)"/>
<path d="M0 0 C1.32 0.33 2.64 0.66 4 1 C3.70867187 1.71671875 3.41734375 2.4334375 3.1171875 3.171875 C2.40207215 4.982167 1.71669909 6.80466981 1.0703125 8.640625 C0.75835937 9.50171875 0.44640625 10.3628125 0.125 11.25 C-0.18179688 12.12140625 -0.48859375 12.9928125 -0.8046875 13.890625 C-2 16 -2 16 -4.0703125 16.671875 C-4.70710938 16.78015625 -5.34390625 16.8884375 -6 17 C-6.33 17.66 -6.66 18.32 -7 19 C-7.33 17.68 -7.66 16.36 -8 15 C-6.68 15 -5.36 15 -4 15 C-3.86722656 14.45859375 -3.73445313 13.9171875 -3.59765625 13.359375 C-2.91051995 10.6467585 -2.17649541 7.94893977 -1.4375 5.25 C-1.16808594 4.26515625 -0.89867187 3.2803125 -0.62109375 2.265625 C-0.41613281 1.51796875 -0.21117187 0.7703125 0 0 Z " fill="#6D5154" transform="translate(64,176)"/>
<path d="M0 0 C0.99 0 1.98 0 3 0 C2.625 1.9375 2.625 1.9375 2 4 C0 5 0 5 -9 5 C-9 11.27 -9 17.54 -9 24 C-9.33 24 -9.66 24 -10 24 C-10.02505615 23.43490723 -10.0501123 22.86981445 -10.07592773 22.28759766 C-10.19179956 19.73316258 -10.31456537 17.1791045 -10.4375 14.625 C-10.47681641 13.73554688 -10.51613281 12.84609375 -10.55664062 11.9296875 C-10.61948242 10.65351563 -10.61948242 10.65351563 -10.68359375 9.3515625 C-10.72025146 8.56604004 -10.75690918 7.78051758 -10.79467773 6.97119141 C-10.890891 4.92476504 -10.890891 4.92476504 -12 3 C-8.04 3 -4.08 3 0 3 C0 2.01 0 1.02 0 0 Z " fill="#A1775A" transform="translate(151,133)"/>
<path d="M0 0 C0 0.33 0 0.66 0 1 C-8.67203747 3.58483938 -17.14048804 3.01021886 -26.0625 2.625 C-27.6112885 2.5666469 -29.16011703 2.50934642 -30.70898438 2.453125 C-34.47322777 2.31421999 -38.2366423 2.16106394 -42 2 C-42 1.67 -42 1.34 -42 1 C-37.30440766 0.85603859 -32.60877029 0.71368196 -27.91308594 0.57275391 C-26.31867183 0.52468274 -24.72427043 0.47618795 -23.12988281 0.42724609 C-20.82620477 0.35660766 -18.52248394 0.28753867 -16.21875 0.21875 C-15.51633179 0.19687622 -14.81391357 0.17500244 -14.09020996 0.15246582 C-9.39143749 0.01414384 -4.70083744 -0.01843466 0 0 Z " fill="#675458" transform="translate(113,200)"/>
<path d="M0 0 C5.61 0 11.22 0 17 0 C17 0.99 17 1.98 17 3 C11.39 3 5.78 3 0 3 C0 2.01 0 1.02 0 0 Z " fill="#FDD197" transform="translate(197,173)"/>
<path d="M0 0 C1.65 0 3.3 0 5 0 C5 1.32 5 2.64 5 4 C4.01 4 3.02 4 2 4 C2 7.3 2 10.6 2 14 C1.34 14 0.68 14 0 14 C0 14.99 0 15.98 0 17 C-0.66 17 -1.32 17 -2 17 C-1.34 11.39 -0.68 5.78 0 0 Z " fill="#ECB27F" transform="translate(143,142)"/>
<path d="M0 0 C0 2.31 0 4.62 0 7 C-1.99954746 7.04254356 -4.00041636 7.04080783 -6 7 C-7 6 -7 6 -7.0625 3.4375 C-7.041875 2.633125 -7.02125 1.82875 -7 1 C-4.53721199 -0.231394 -2.7204945 -0.07159196 0 0 Z " fill="#F2C38C" transform="translate(92,109)"/>
<path d="M0 0 C0.99 0.33 1.98 0.66 3 1 C2.57674417 2.79508501 2.13589265 4.5860283 1.6875 6.375 C1.44386719 7.37273437 1.20023438 8.37046875 0.94921875 9.3984375 C0 12 0 12 -3 14 C-4.37095624 10.30962722 -3.60010967 8.29116165 -2.0625 4.75 C-1.68222656 3.85796875 -1.30195313 2.9659375 -0.91015625 2.046875 C-0.60980469 1.37140625 -0.30945313 0.6959375 0 0 Z " fill="#786E7D" transform="translate(189,139)"/>
<path d="M0 0 C1.8871875 0.061875 1.8871875 0.061875 3.8125 0.125 C3.4825 1.445 3.1525 2.765 2.8125 4.125 C0.5025 4.125 -1.8075 4.125 -4.1875 4.125 C-4.1875 5.775 -4.1875 7.425 -4.1875 9.125 C-4.5175 8.135 -4.8475 7.145 -5.1875 6.125 C-5.8475 6.125 -6.5075 6.125 -7.1875 6.125 C-7.1875 4.805 -7.1875 3.485 -7.1875 2.125 C-4.09861478 0.06574319 -3.47814073 -0.1140374 0 0 Z " fill="#EDAF79" transform="translate(146.1875,100.875)"/>
<path d="M0 0 C3.47188326 3.00896549 5.19430483 5.43439405 6 10 C5.27194876 12.56625153 4.24226715 14.61102471 3 17 C1.8422494 13.52674819 1.93133348 10.63932552 2 7 C1.01 7.99 0.02 8.98 -1 10 C-0.67 6.7 -0.34 3.4 0 0 Z " fill="#8D564B" transform="translate(151,173)"/>
<path d="M0 0 C1.15113281 -0.01417969 2.30226562 -0.02835938 3.48828125 -0.04296875 C6.5388951 0.17679464 8.21970325 0.42311325 10.6875 2.1875 C11.0175 3.1775 11.3475 4.1675 11.6875 5.1875 C9.58285207 4.87825786 7.4787947 4.5649944 5.375 4.25 C4.20324219 4.07597656 3.03148437 3.90195313 1.82421875 3.72265625 C-1.38103224 3.1758077 -4.23248345 2.21417218 -7.3125 1.1875 C-5.45615553 -0.66884447 -2.48420097 0.01381647 0 0 Z " fill="#F7C074" transform="translate(204.3125,147.8125)"/>
<path d="M0 0 C2.64 0 5.28 0 8 0 C8.87890625 6.15234375 8.87890625 6.15234375 9 8 C8 9 8 9 6.15234375 9.09765625 C4.1015625 9.06510417 2.05078125 9.03255208 0 9 C0.33 8.34 0.66 7.68 1 7 C2.65 7 4.3 7 6 7 C6 5.35 6 3.7 6 2 C3.69 2 1.38 2 -1 2 C-0.67 1.34 -0.34 0.68 0 0 Z " fill="#D19564" transform="translate(199,98)"/>
<path d="M0 0 C0.66 0 1.32 0 2 0 C2.05391993 1.79133978 2.09275571 3.58313899 2.125 5.375 C2.14820313 6.37273437 2.17140625 7.37046875 2.1953125 8.3984375 C2 11 2 11 0 13 C0 12.01 0 11.02 0 10 C-0.99 10 -1.98 10 -3 10 C-3.33 10.66 -3.66 11.32 -4 12 C-3.33989524 9.15449988 -2.48275034 6.47674001 -1.4375 3.75 C-1.16808594 3.04359375 -0.89867187 2.3371875 -0.62109375 1.609375 C-0.41613281 1.07828125 -0.21117187 0.5471875 0 0 Z " fill="#D0A07D" transform="translate(153,151)"/>
<path d="M0 0 C0.33 1.32 0.66 2.64 1 4 C1.66 4 2.32 4 3 4 C3.3403125 4.9590625 3.3403125 4.9590625 3.6875 5.9375 C4.85250896 8.27193661 4.85250896 8.27193661 7.625 8.75 C8.40875 8.8325 9.1925 8.915 10 9 C10 9.33 10 9.66 10 10 C7.36 10 4.72 10 2 10 C2 9.34 2 8.68 2 8 C0.02 8 -1.96 8 -4 8 C-4.33 7.34 -4.66 6.68 -5 6 C-4.360625 5.7525 -3.72125 5.505 -3.0625 5.25 C-0.81258459 4.18437567 -0.81258459 4.18437567 -0.25 1.875 C-0.1675 1.25625 -0.085 0.6375 0 0 Z " fill="#D89769" transform="translate(138,103)"/>
<path d="M0 0 C0.33 0.66 0.66 1.32 1 2 C3.64 2 6.28 2 9 2 C9 4 9 6 9 8 C10.32 8.33 11.64 8.66 13 9 C11.328125 9.74609375 11.328125 9.74609375 9 10 C6.421875 8.34765625 6.421875 8.34765625 3.75 6.0625 C2.41195312 4.93521484 2.41195312 4.93521484 1.046875 3.78515625 C0.37140625 3.19605469 -0.3040625 2.60695312 -1 2 C-0.67 1.34 -0.34 0.68 0 0 Z " fill="#957062" transform="translate(169,185)"/>
<path d="M0 0 C1.04474487 0.08640747 1.04474487 0.08640747 2.1105957 0.17456055 C2.86791992 0.2293457 3.62524414 0.28413086 4.40551758 0.34057617 C5.19120117 0.4134082 5.97688477 0.48624023 6.78637695 0.5612793 C7.58366211 0.62250977 8.38094727 0.68374023 9.20239258 0.74682617 C11.16904648 0.89991899 13.13416685 1.07248639 15.09887695 1.2487793 C15.09887695 1.5787793 15.09887695 1.9087793 15.09887695 2.2487793 C10.81590164 3.30496933 6.6690205 3.36580022 2.28637695 3.3112793 C1.59350586 3.30676758 0.90063477 3.30225586 0.18676758 3.29760742 C-1.50923373 3.28591086 -3.20519008 3.26797854 -4.90112305 3.2487793 C-2.45543683 0.32131631 -2.45543683 0.32131631 0 0 Z " fill="#E2996F" transform="translate(176.901123046875,102.751220703125)"/>
<path d="M0 0 C0.99 0.33 1.98 0.66 3 1 C3 4.3 3 7.6 3 11 C2.01 11 1.02 11 0 11 C-0.66 7.7 -1.32 4.4 -2 1 C-1.34 0.67 -0.68 0.34 0 0 Z " fill="#E8AB75" transform="translate(144,170)"/>
<path d="M0 0 C0.91007812 0.00902344 1.82015625 0.01804687 2.7578125 0.02734375 C3.80582031 0.04474609 3.80582031 0.04474609 4.875 0.0625 C4.875 0.3925 4.875 0.7225 4.875 1.0625 C4.27171875 1.08828125 3.6684375 1.1140625 3.046875 1.140625 C-2.17272187 1.44378215 -2.17272187 1.44378215 -6.5625 4.0625 C-7.078125 4.7225 -7.59375 5.3825 -8.125 6.0625 C-9.115 6.5575 -9.115 6.5575 -10.125 7.0625 C-11.115 8.5475 -11.115 8.5475 -12.125 10.0625 C-13.115 8.4125 -14.105 6.7625 -15.125 5.0625 C-12.23265685 4.23611624 -10.23757569 4.0625 -7.125 4.0625 C-7.125 3.0725 -7.125 2.0825 -7.125 1.0625 C-4.60024538 -0.19987731 -2.81299534 -0.03606404 0 0 Z " fill="#694A3D" transform="translate(100.125,113.9375)"/>
<path d="M0 0 C0.82638376 2.89234315 1 4.88742431 1 8 C0.01 8 -0.98 8 -2 8 C-1.95875 9.093125 -1.9175 10.18625 -1.875 11.3125 C-2 15 -2 15 -4 18 C-4.53449652 10.75460274 -3.71607548 6.27087737 0 0 Z " fill="#A47A60" transform="translate(140,181)"/>
<path d="M0 0 C1.98 0.99 1.98 0.99 4 2 C4 4.97 4 7.94 4 11 C2.02 11.99 2.02 11.99 0 13 C0 8.71 0 4.42 0 0 Z " fill="#FDCC86" transform="translate(223,160)"/>
<path d="M0 0 C1.61725534 3.00950123 2.67582623 5.97103608 3.625 9.25 C3.88539063 10.14203125 4.14578125 11.0340625 4.4140625 11.953125 C4.60742188 12.62859375 4.80078125 13.3040625 5 14 C4.01 13.67 3.02 13.34 2 13 C2 12.34 2 11.68 2 11 C1.34 11 0.68 11 0 11 C-0.99 8.03 -1.98 5.06 -3 2 C-2.34 2 -1.68 2 -1 2 C-0.67 1.34 -0.34 0.68 0 0 Z " fill="#625762" transform="translate(216,135)"/>
<path d="M0 0 C0.33 0.99 0.66 1.98 1 3 C0.01 3.33 -0.98 3.66 -2 4 C-3.21869929 6.50447516 -3.21869929 6.50447516 -4 9 C-5.32 9 -6.64 9 -8 9 C-8 9.66 -8 10.32 -8 11 C-8.66 11 -9.32 11 -10 11 C-9.875 8.75 -9.875 8.75 -9 6 C-4.02702703 2 -4.02702703 2 0 2 C0 1.34 0 0.68 0 0 Z " fill="#98765E" transform="translate(136,214)"/>
<path d="M0 0 C1.65 0 3.3 0 5 0 C5 2.31 5 4.62 5 7 C3.35 7 1.7 7 0 7 C0 4.69 0 2.38 0 0 Z " fill="#5F76C3" transform="translate(92,185)"/>
<path d="M0 0 C-0.33 0.66 -0.66 1.32 -1 2 C-7.9485042 3.33625081 -14.94870872 3.09674028 -22 3 C-22 2.67 -22 2.34 -22 2 C-19.45887768 1.66198848 -16.91723254 1.32946621 -14.375 1 C-13.66214844 0.90460938 -12.94929688 0.80921875 -12.21484375 0.7109375 C-8.11178391 0.18393899 -4.14754258 -0.10466984 0 0 Z " fill="#AF8365" transform="translate(133,107)"/>
<path d="M0 0 C6.6 0.33 13.2 0.66 20 1 C20 1.33 20 1.66 20 2 C13.28837062 2.88021369 6.76594019 3.11381955 0 3 C0 2.01 0 1.02 0 0 Z " fill="#F9CB87" transform="translate(197,184)"/>
<path d="M0 0 C1.9078584 3.1749094 2.1609041 5.10585211 1.625 8.75 C1.51414063 9.54921875 1.40328125 10.3484375 1.2890625 11.171875 C1.19367188 11.77515625 1.09828125 12.3784375 1 13 C0.34 13 -0.32 13 -1 13 C-2.5635348 9.87293041 -2.39958487 6.42017557 -2 3 C-1.34 2.01 -0.68 1.02 0 0 Z " fill="#BD8C6E" transform="translate(138,161)"/>
<path d="M0 0 C1.15242188 0.00902344 2.30484375 0.01804688 3.4921875 0.02734375 C4.36101562 0.03894531 5.22984375 0.05054688 6.125 0.0625 C6.125 0.3925 6.125 0.7225 6.125 1.0625 C5.28195313 1.11148438 4.43890625 1.16046875 3.5703125 1.2109375 C2.47460938 1.28570312 1.37890625 1.36046875 0.25 1.4375 C-1.38582031 1.54191406 -1.38582031 1.54191406 -3.0546875 1.6484375 C-6.00546474 1.79503491 -6.00546474 1.79503491 -7.875 4.0625 C-9.86321313 4.46014263 -11.86444339 4.80025349 -13.875 5.0625 C-13.545 3.7425 -13.215 2.4225 -12.875 1.0625 C-8.52167264 0.22226812 -4.43057481 -0.04520995 0 0 Z " fill="#D49067" transform="translate(103.875,192.9375)"/>
<path d="M0 0 C2.52259061 1.97420135 2.9929808 2.96745642 3.6875 6.1875 C3.790625 7.115625 3.89375 8.04375 4 9 C3.34 9 2.68 9 2 9 C1.67 9.66 1.34 10.32 1 11 C-2.0653951 5.60490463 -2.0653951 5.60490463 -1.75 2.6875 C-1 1 -1 1 0 0 Z " fill="#715A6E" transform="translate(228,172)"/>
<path d="M0 0 C0.66 0 1.32 0 2 0 C2 0.66 2 1.32 2 2 C7.61 2.33 13.22 2.66 19 3 C19 3.33 19 3.66 19 4 C15.54210946 4.19635974 12.08367803 4.38058252 8.625 4.5625 C7.64015625 4.61857422 6.6553125 4.67464844 5.640625 4.73242188 C4.22910156 4.80493164 4.22910156 4.80493164 2.7890625 4.87890625 C1.91975098 4.9260376 1.05043945 4.97316895 0.15478516 5.02172852 C-2 5 -2 5 -4 4 C-4 3.34 -4 2.68 -4 2 C-2.68 2 -1.36 2 0 2 C0 1.34 0 0.68 0 0 Z " fill="#8985AB" transform="translate(69,165)"/>
<path d="M0 0 C0 0.33 0 0.66 0 1 C-3.07617188 1.29296875 -3.07617188 1.29296875 -6.15234375 1.5859375 C-6.76207031 1.72257813 -7.37179688 1.85921875 -8 2 C-8.33 2.66 -8.66 3.32 -9 4 C-12.3 4 -15.6 4 -19 4 C-19 3.34 -19 2.68 -19 2 C-12.53991163 0.04978464 -6.7281627 -0.22262303 0 0 Z " fill="#F0DDAF" transform="translate(210,144)"/>
<path d="M0 0 C0.33 0.99 0.66 1.98 1 3 C-4.94 3.495 -4.94 3.495 -11 4 C-10.67 3.01 -10.34 2.02 -10 1 C-6.52674819 -0.1577506 -3.63932552 -0.06866652 0 0 Z " fill="#636BC7" transform="translate(106,169)"/>
<path d="M0 0 C3.3 0 6.6 0 10 0 C10 0.99 10 1.98 10 3 C6.7 3 3.4 3 0 3 C0 2.01 0 1.02 0 0 Z " fill="#5E71C7" transform="translate(99,188)"/>
<path d="M0 0 C-1 2 -1 2 -4 4 C-4.33 4.33 -4.66 4.66 -5 5 C-6.85287502 5.07226502 -8.70833878 5.0838122 -10.5625 5.0625 C-11.57441406 5.05347656 -12.58632812 5.04445313 -13.62890625 5.03515625 C-14.41136719 5.02355469 -15.19382812 5.01195313 -16 5 C-16 4.67 -16 4.34 -16 4 C-13.69 4 -11.38 4 -9 4 C-9 3.34 -9 2.68 -9 2 C-5.86501708 0.14223235 -3.62528568 -0.20140476 0 0 Z " fill="#DFA47D" transform="translate(138,107)"/>
<path d="M0 0 C3.5 0.3125 3.5 0.3125 7 1 C7.33 1.66 7.66 2.32 8 3 C2.72 3 -2.56 3 -8 3 C-8 2.34 -8 1.68 -8 1 C-6.865625 1.020625 -5.73125 1.04125 -4.5625 1.0625 C-1.18424326 1.41577477 -1.18424326 1.41577477 0 0 Z " fill="#DA9766" transform="translate(79,197)"/>
<path d="M0 0 C1.32 0 2.64 0 4 0 C3.47731534 2.76276177 2.89130413 5.3260876 2 8 C1.01 7.67 0.02 7.34 -1 7 C-1.04254356 5.00045254 -1.04080783 2.99958364 -1 1 C-0.67 0.67 -0.34 0.34 0 0 Z " fill="#FDF1B4" transform="translate(185,155)"/>
<path d="M0 0 C0 0.99 0 1.98 0 3 C-4.29 3 -8.58 3 -13 3 C-13 2.34 -13 1.68 -13 1 C-11.20843648 0.83222817 -9.4167455 0.66581706 -7.625 0.5 C-6.62726563 0.4071875 -5.62953125 0.314375 -4.6015625 0.21875 C-2 0 -2 0 0 0 Z " fill="#F58B48" transform="translate(111,181)"/>
<path d="M0 0 C0.33 0 0.66 0 1 0 C1.39169887 2.66355234 1.40564529 4.39224373 -0.11328125 6.66796875 C-1.36389317 8.1510888 -2.67864514 9.57954352 -4 11 C-6 10 -6 10 -8 7 C-6.35 6.67 -4.7 6.34 -3 6 C-3 5.34 -3 4.68 -3 4 C-2.01 4 -1.02 4 0 4 C0 2.68 0 1.36 0 0 Z " fill="#B68D69" transform="translate(225,174)"/>
<path d="M0 0 C0.99 0.33 1.98 0.66 3 1 C2.01 4.3 1.02 7.6 0 11 C-0.66 11 -1.32 11 -2 11 C-1.40049704 7.31733897 -0.75241109 3.65456815 0 0 Z " fill="#936154" transform="translate(151,148)"/>
<path d="M0 0 C0.66 0 1.32 0 2 0 C2.33 0.99 2.66 1.98 3 3 C1.22557591 5.99816485 -0.53540571 8.53540571 -3 11 C-3.99 10.67 -4.98 10.34 -6 10 C-5.01 9.34 -4.02 8.68 -3 8 C-2.6278958 6.67696283 -2.29369827 5.34262065 -2 4 C-1.34 3.34 -0.68 2.68 0 2 C0 1.34 0 0.68 0 0 Z " fill="#E8AB78" transform="translate(150,118)"/>
<path d="M0 0 C0 0.99 0 1.98 0 3 C-0.99 3 -1.98 3 -3 3 C-3.33 3.66 -3.66 4.32 -4 5 C-6.0625 5.625 -6.0625 5.625 -8 6 C-8 4.68 -8 3.36 -8 2 C-4.77208445 -0.1519437 -3.71599191 -0.20086443 0 0 Z " fill="#F7D5AB" transform="translate(147,117)"/>
<path d="M0 0 C1.485 0.99 1.485 0.99 3 2 C3.36328125 4.96875 3.36328125 4.96875 3.3125 8.5 C3.30863281 9.6653125 3.30476562 10.830625 3.30078125 12.03125 C3 15 3 15 1 17 C1.03480469 15.89591797 1.03480469 15.89591797 1.0703125 14.76953125 C1.08835938 13.79371094 1.10640625 12.81789062 1.125 11.8125 C1.14820313 10.84957031 1.17140625 9.88664063 1.1953125 8.89453125 C0.9913544 5.87187222 0.26874632 3.73230015 -1 1 C-0.67 0.67 -0.34 0.34 0 0 Z " fill="#FAAF66" transform="translate(219,157)"/>
<path d="M0 0 C0.66 0.66 1.32 1.32 2 2 C0.35 2.33 -1.3 2.66 -3 3 C-2.01 4.32 -1.02 5.64 0 7 C-1 8 -1 8 -4.0625 8.0625 C-5.031875 8.041875 -6.00125 8.02125 -7 8 C-6.67 7.34 -6.34 6.68 -6 6 C-5.34 6 -4.68 6 -4 6 C-4 4.68 -4 3.36 -4 2 C-2.68 1.34 -1.36 0.68 0 0 Z " fill="#D18B5B" transform="translate(148,202)"/>
<path d="M0 0 C0.66 0 1.32 0 2 0 C2 0.66 2 1.32 2 2 C2.66 2 3.32 2 4 2 C4 4.97 4 7.94 4 11 C3.01 10.67 2.02 10.34 1 10 C1.3403125 9.1646875 1.3403125 9.1646875 1.6875 8.3125 C2.12449065 5.07876916 0.81198627 3.60926022 -1 1 C-0.67 0.67 -0.34 0.34 0 0 Z " fill="#765049" transform="translate(138,198)"/>
<path d="M0 0 C1.77706209 2.66559313 2.87548273 5.0280615 4 8 C3.34 7.67 2.68 7.34 2 7 C1.01 8.485 1.01 8.485 0 10 C-2.125 5.375 -2.125 5.375 -1 2 C-0.67 1.34 -0.34 0.68 0 0 Z " fill="#543E4A" transform="translate(114,180)"/>
<path d="M0 0 C0.33 0 0.66 0 1 0 C1.08117951 2.41734542 1.14056926 4.83194949 1.1875 7.25 C1.21263672 7.93191406 1.23777344 8.61382812 1.26367188 9.31640625 C1.31137459 12.59199289 1.21085076 14.65348556 -0.51171875 17.484375 C-1.00285156 17.98453125 -1.49398437 18.4846875 -2 19 C-1.7834375 17.63875 -1.7834375 17.63875 -1.5625 16.25 C-0.78452415 10.85973874 -0.41887914 5.42760412 0 0 Z " fill="#D29C76" transform="translate(150,138)"/>
<path d="M0 0 C0.33 0 0.66 0 1 0 C0.54177532 3.46941546 0.10868317 6.67395049 -1 10 C-1.99 10 -2.98 10 -4 10 C-3.29445932 6.33118845 -1.72264494 3.29549466 0 0 Z " fill="#817F84" transform="translate(87,121)"/>
<path d="M0 0 C3 2 3 2 3.6875 4.125 C3.790625 4.74375 3.89375 5.3625 4 6 C3.34 6 2.68 6 2 6 C1.67 6.99 1.34 7.98 1 9 C1 8.01 1 7.02 1 6 C0.34 6 -0.32 6 -1 6 C-1.042721 4.33388095 -1.04063832 2.66617115 -1 1 C-0.67 0.67 -0.34 0.34 0 0 Z " fill="#D99261" transform="translate(151,104)"/>
<path d="M0 0 C0.99 0 1.98 0 3 0 C3 0.99 3 1.98 3 3 C2.34 3 1.68 3 1 3 C1.33 3.99 1.66 4.98 2 6 C0.02 6 -1.96 6 -4 6 C-2.1875 3 -2.1875 3 0 0 Z " fill="#FBC47D" transform="translate(221,175)"/>
<path d="M0 0 C2.64 0 5.28 0 8 0 C6.68 0.33 5.36 0.66 4 1 C4.99 2.32 5.98 3.64 7 5 C5.35 5 3.7 5 2 5 C1.34 3.35 0.68 1.7 0 0 Z " fill="#DCA179" transform="translate(153,105)"/>
<path d="M0 0 C0.99 0 1.98 0 3 0 C2.67 2.64 2.34 5.28 2 8 C1.34 8 0.68 8 0 8 C-1.125 2.25 -1.125 2.25 0 0 Z " fill="#AF7066" transform="translate(140,192)"/>
<path d="M0 0 C0.33 0 0.66 0 1 0 C1 2.31 1 4.62 1 7 C0.01 7.33 -0.98 7.66 -2 8 C-2.73323796 10.01508358 -2.73323796 10.01508358 -3 12 C-3 11.01 -3 10.02 -3 9 C-3.66 9 -4.32 9 -5 9 C-5 8.34 -5 7.68 -5 7 C-4.0409375 6.6596875 -4.0409375 6.6596875 -3.0625 6.3125 C-0.72806339 5.14749104 -0.72806339 5.14749104 -0.25 2.375 C-0.1675 1.59125 -0.085 0.8075 0 0 Z " fill="#F2C593" transform="translate(227,166)"/>
<path d="M0 0 C0.33 0.66 0.66 1.32 1 2 C2.32 2 3.64 2 5 2 C5 3.32 5 4.64 5 6 C3.35 6 1.7 6 0 6 C0 4.02 0 2.04 0 0 Z " fill="#6168C2" transform="translate(88,169)"/>
<path d="M0 0 C0.99 0.33 1.98 0.66 3 1 C3.33 1.99 3.66 2.98 4 4 C3.01 4.33 2.02 4.66 1 5 C0.26676204 7.01508358 0.26676204 7.01508358 0 9 C-1.125 3.375 -1.125 3.375 0 0 Z " fill="#F5C18E" transform="translate(147,117)"/>
<path d="M0 0 C0.33 0 0.66 0 1 0 C1 1.98 1 3.96 1 6 C-1.31 6 -3.62 6 -6 6 C-6.33 5.34 -6.66 4.68 -7 4 C-6.030625 3.71125 -5.06125 3.4225 -4.0625 3.125 C-0.89335797 2.35785318 -0.89335797 2.35785318 0 0 Z " fill="#F7C290" transform="translate(149,106)"/>
<path d="M0 0 C0.99 0.33 1.98 0.66 3 1 C3.6875 3.0625 3.6875 3.0625 4 5 C2.02 5 0.04 5 -2 5 C-2 4.01 -2 3.02 -2 2 C-1.34 2 -0.68 2 0 2 C0 1.34 0 0.68 0 0 Z " fill="#B38061" transform="translate(151,208)"/>
<path d="M0 0 C0.99 0 1.98 0 3 0 C3 2.31 3 4.62 3 7 C2.01 7 1.02 7 0 7 C0 4.69 0 2.38 0 0 Z " fill="#F6A85D" transform="translate(93,177)"/>
<path d="M0 0 C0.33 0.99 0.66 1.98 1 3 C1.66 3 2.32 3 3 3 C3 4.65 3 6.3 3 8 C2.01 8 1.02 8 0 8 C-1.09658936 4.71023192 -0.79953138 3.28696233 0 0 Z " fill="#A2614F" transform="translate(139,169)"/>
<path d="M0 0 C1.231394 3.69418201 0.64432764 6.2056261 0 10 C-0.99 9.67 -1.98 9.34 -3 9 C-2.01 6.03 -1.02 3.06 0 0 Z " fill="#4D4650" transform="translate(79,139)"/>
<path d="M0 0 C3 1 3 1 4 3 C4.039992 4.99960012 4.04346799 7.00047242 4 9 C3.67 8.01 3.34 7.02 3 6 C2.34 6 1.68 6 1 6 C0.67 4.02 0.34 2.04 0 0 Z " fill="#8B788E" transform="translate(212,131)"/>
<path d="M0 0 C0.33 0.66 0.66 1.32 1 2 C3.31 2 5.62 2 8 2 C8 2.33 8 2.66 8 3 C7.04287109 3.07347656 7.04287109 3.07347656 6.06640625 3.1484375 C5.24011719 3.22320312 4.41382812 3.29796875 3.5625 3.375 C2.73878906 3.44460937 1.91507812 3.51421875 1.06640625 3.5859375 C0.04353516 3.79089844 0.04353516 3.79089844 -1 4 C-1.33 4.66 -1.66 5.32 -2 6 C-2 2 -2 2 0 0 Z " fill="#907B86" transform="translate(68,182)"/>
<path d="M0 0 C1.74627478 2.61941217 2.38722388 4.03824877 3 7 C2.01 7.33 1.02 7.66 0 8 C-0.38063221 5.6739143 -0.71269945 3.33944736 -1 1 C-0.67 0.67 -0.34 0.34 0 0 Z " fill="#868083" transform="translate(93,123)"/>
<path d="M0 0 C1.98 0 3.96 0 6 0 C5.67 1.32 5.34 2.64 5 4 C3.35 3.67 1.7 3.34 0 3 C0 2.01 0 1.02 0 0 Z " fill="#EAA871" transform="translate(144,101)"/>
<path d="M0 0 C0.99 0 1.98 0 3 0 C2.67 1.32 2.34 2.64 2 4 C1.360625 4.12375 0.72125 4.2475 0.0625 4.375 C-0.9584375 4.684375 -0.9584375 4.684375 -2 5 C-2.33 5.66 -2.66 6.32 -3 7 C-3.33 5.68 -3.66 4.36 -4 3 C-2.68 3 -1.36 3 0 3 C0 2.01 0 1.02 0 0 Z " fill="#957370" transform="translate(60,188)"/>
<path d="M0 0 C0.99 0.33 1.98 0.66 3 1 C3 2.65 3 4.3 3 6 C1.02 4.68 -0.96 3.36 -3 2 C-2.01 1.34 -1.02 0.68 0 0 Z " fill="#9D7254" transform="translate(61,194)"/>
<path d="M0 0 C1.65 0 3.3 0 5 0 C4.67 0.99 4.34 1.98 4 3 C3.34 3 2.68 3 2 3 C2 3.66 2 4.32 2 5 C0.68 4.67 -0.64 4.34 -2 4 C-1.34 3.67 -0.68 3.34 0 3 C0 2.01 0 1.02 0 0 Z " fill="#976052" transform="translate(230,187)"/>
<path d="M0 0 C0.99 0 1.98 0 3 0 C3.33 1.98 3.66 3.96 4 6 C3.01 6 2.02 6 1 6 C0.67 4.02 0.34 2.04 0 0 Z " fill="#EEB783" transform="translate(143,175)"/>
<path d="M0 0 C0.33 0.66 0.66 1.32 1 2 C1.66 2 2.32 2 3 2 C2.67 3.98 2.34 5.96 2 8 C1.01 7.34 0.02 6.68 -1 6 C-0.67 4.02 -0.34 2.04 0 0 Z " fill="#E8AC7D" transform="translate(139,160)"/>
<path d="M0 0 C0.66 0.99 1.32 1.98 2 3 C0.35 4.65 -1.3 6.3 -3 8 C-3.33 7.01 -3.66 6.02 -4 5 C-2.0625 2.3125 -2.0625 2.3125 0 0 Z " fill="#C46B4F" transform="translate(148,157)"/>
<path d="M0 0 C1.65 0 3.3 0 5 0 C5 1.32 5 2.64 5 4 C3.68 4 2.36 4 1 4 C0.67 2.68 0.34 1.36 0 0 Z " fill="#EFC390" transform="translate(143,142)"/>
<path d="M0 0 C1.74627478 2.61941217 2.38722388 4.03824877 3 7 C2.01 7.33 1.02 7.66 0 8 C-0.66 6.02 -1.32 4.04 -2 2 C-1.34 2 -0.68 2 0 2 C0 1.34 0 0.68 0 0 Z " fill="#655567" transform="translate(211,124)"/>
<path d="M0 0 C1.65 0 3.3 0 5 0 C4.1875 2.4375 4.1875 2.4375 3 5 C2.01 5.33 1.02 5.66 0 6 C0 4.02 0 2.04 0 0 Z " fill="#996B4F" transform="translate(150,110)"/>
<path d="M0 0 C3.875 1.75 3.875 1.75 5 4 C2.69 4 0.38 4 -2 4 C-1.34 2.68 -0.68 1.36 0 0 Z " fill="#C29170" transform="translate(139,209)"/>
<path d="M0 0 C2.31 0 4.62 0 7 0 C7 0.99 7 1.98 7 3 C4.625 3.1875 4.625 3.1875 2 3 C1.34 2.01 0.68 1.02 0 0 Z " fill="#DF9A69" transform="translate(142,210)"/>
<path d="M0 0 C1.6875 1.5 1.6875 1.5 3 4 C2.35208262 6.82923922 1.23902204 9.38216883 0 12 C-1.03159626 8.90521121 -0.97482862 7.47368607 -0.5625 4.3125 C-0.46066406 3.50425781 -0.35882813 2.69601563 -0.25390625 1.86328125 C-0.17011719 1.24839844 -0.08632812 0.63351563 0 0 Z " fill="#8B6B5C" transform="translate(154,178)"/>
<path d="M0 0 C0.66 0 1.32 0 2 0 C2 1.32 2 2.64 2 4 C1.34 4 0.68 4 0 4 C-0.66 5.32 -1.32 6.64 -2 8 C-2.20086443 4.28400809 -2.1519437 3.22791555 0 0 Z " fill="#8C8195" transform="translate(198,117)"/>
</svg>
